<svg width="360" height="631" viewBox="0 0 360 631" fill="none" xmlns="http://www.w3.org/2000/svg">
<rect x="4" width="360" height="641" fill="url(#paint0_radial)"/>
<g style="mix-blend-mode:multiply" opacity="0.3">
<path d="M0.66856 736.562C0.66856 736.562 7.95675 730.078 -7.75544 714.626C-23.4676 699.175 -44.2437 668.91 -25.6919 636.184C-13.1506 615.739 16.3098 589.544 3.48445 570.188C32.4006 575.914 30.7678 607.007 23.385 618.721C16.0021 630.434 18.2028 641.082 29.6557 648.181C29.6557 648.181 16.0258 633.723 37.5827 603.458C59.1397 573.193 70.1193 543.094 59.5893 515.077C49.0593 487.06 67.5873 472.91 76.319 466C69.0308 480.198 65.7653 498.726 87.9375 527.074C110.11 555.422 131.951 581.522 112.074 623.335C108.201 629.323 105.488 635.985 104.076 642.975C108.281 630.711 115.682 619.79 125.514 611.338C136.068 601.518 140.067 583.699 139.712 579.7C143.332 590.964 138.978 606.984 133.512 617.159C128.046 627.334 133.512 638.242 143.332 650.618C149.296 658.185 153.746 666.83 156.442 676.08C155.912 672.579 156.159 669.005 157.165 665.611C158.171 662.217 159.911 659.086 162.263 656.439C170.876 646.69 175.419 636.066 170.19 628.044C182.566 632.776 179.655 642.691 179.655 642.691C179.655 642.691 211.86 617.253 209.944 589.71C208.027 562.166 197.402 545.791 218.415 532.422C211.86 545.507 210.511 560.249 223.313 576.601C236.115 592.952 258.808 622.152 244.87 664.153C259.872 647.802 270.899 642.052 276.507 628.162C280.767 614.201 274.141 612.308 272.201 600.618C270.26 588.929 274.709 582.658 281.382 582.445C274.496 588.716 276.2 600.973 287.866 613.562C303.53 630.481 316.261 645.744 311.055 667.466C322.745 654.499 323.384 636.539 318.154 618.792C312.925 601.044 307.293 589.331 315.22 578.068C323.147 566.804 338.197 552.37 320.662 542.124C330.672 539.757 338.197 555.493 335.688 566.993C333.18 578.494 331.524 591.84 344.893 603.742C358.263 615.644 385.12 645.105 374.969 675.18C366.616 696.903 357.837 710.06 369.337 721.773C375.693 728.555 383.935 733.277 393 735.332C384.766 737.308 376.096 736.276 368.556 732.421C367.968 733.6 367.836 734.955 368.185 736.226C368.534 737.497 369.341 738.594 370.449 739.307C370.449 739.307 354.997 737.438 352.489 725.109C351.785 727.044 350.7 728.819 349.298 730.327C347.895 731.835 346.204 733.046 344.325 733.888C344.325 733.888 342.243 711.527 354.784 705.895C348.088 705.469 345.792 707.149 345.792 707.149C345.792 707.149 368.154 685.852 348.727 653.884C338.268 637.793 333.062 628.612 335.357 619.62C328.448 625.677 331.808 635.095 335.357 642.809C338.907 650.524 346.218 668.839 332.423 684.385C320.307 697.968 319.479 698.583 319.479 698.583C319.479 698.583 312.38 685 317.397 678.753C306.938 689.402 309.446 696.714 309.233 710.698C309.02 724.683 294.207 731.38 282.494 733.675C293.781 723.027 292.953 718.649 290.445 705.895C287.937 693.141 290.232 683.131 304.43 672.057C297.118 674.423 285.002 683.344 281.051 690.23C291.699 669.762 284.174 657.433 284.174 657.433C284.174 657.433 285.641 669.975 267.61 685.829C249.579 701.683 246.716 712.355 254.241 732.61C237.487 725.322 228.022 712.355 227.714 705.8C225.348 719.785 231.69 726.269 227.501 732.539C228.117 722.506 226.034 725.843 221.657 717.916C217.279 709.989 212.452 700.358 216.427 693.259C210.369 697.021 209.754 706.628 209.754 706.628C209.754 706.628 202.229 696.406 214.771 675.086C227.312 653.765 230.625 647.305 224.78 627.263C224.378 641.461 218.107 650.24 204.951 660.06C200.22 663.39 196.299 667.741 193.477 672.792C190.655 677.842 189.004 683.462 188.647 689.236C184.056 682.327 184.269 676.695 188.647 667.703C193.025 658.711 191.013 654.357 191.013 654.357C191.013 654.357 191.013 659.776 183.488 666.188C175.964 672.601 154.052 698.985 177.857 733.864C177.857 733.864 167.421 730.007 166.546 723.192C164.843 726.177 162.354 728.638 159.35 730.307C156.346 731.976 152.942 732.789 149.508 732.658C152.798 730.457 152.561 725.322 152.561 725.322C151.284 727.401 149.601 729.202 147.613 730.617C145.625 732.031 143.373 733.031 140.99 733.557C146.243 723.453 151.52 707.93 146.74 694.702C146.196 703.576 142.007 706.155 142.007 706.155C142.007 706.155 147.852 691.957 132.045 676.434C116.238 660.912 122.675 646.643 122.675 646.643C122.675 646.643 111.482 657.551 119.125 681.83C126.768 706.108 122.959 713.467 112.026 720.282C113.957 717.292 114.636 713.664 113.919 710.178C113.919 710.178 110.323 728.138 86.352 731.474C91.8419 724.163 97.2843 711.858 93.5929 702.038C91.2266 709.965 82.282 717.04 82.282 717.04C82.282 717.04 97.7339 695.909 77.3838 664.437C65.5523 643.354 65.7416 636.988 68.8178 631.167C62.0975 632.445 60.8197 642.454 60.8197 642.454C60.8197 642.454 56.8207 636.823 63.7303 622.27C70.6399 607.717 69.0071 601.163 69.0071 601.163C69.0071 601.163 68.4629 608.995 59.3763 620.448C50.2897 631.901 41.1795 646.075 48.657 667.774C56.1345 689.473 44.8236 700.31 44.8236 700.31C44.8236 700.31 45.0129 693.212 35.5477 684.669C26.0826 676.127 24.0949 667.585 27.0054 660.32C18.818 665.762 20.4508 678.493 25.9169 691.768C31.383 705.043 34.6485 718.129 16.4517 730.315C19.3623 723.95 13.9198 718.318 13.9198 718.318C13.9198 718.318 14.3221 733.344 0.66856 736.562Z" fill="url(#paint1_linear)"/>
<path d="M362.522 700.074C362.522 700.074 360.322 702.984 354.524 702.251C367.61 693.519 377.619 665.289 356.63 642.951C341.226 626.553 336.517 614.248 336.517 614.248C336.517 614.248 322.319 616.97 327.241 634.977C332.163 652.985 323.407 669.336 304.335 678.067C306.373 675.047 307.595 671.55 307.881 667.918C308.167 664.285 307.508 660.641 305.968 657.339C304.335 663.349 296.148 664.437 296.148 664.437C302.134 652.44 292.882 637.698 292.882 637.698C292.338 646.43 285.783 650.784 266.687 663.893C247.591 677.002 238.647 698.417 238.647 698.417C235.078 693.909 232.864 688.479 232.26 682.761C231.657 677.043 232.69 671.271 235.239 666.117C243.924 647.495 241.439 632.587 222.509 605.564C215.41 641.271 193.308 647.163 176.531 654.949C182.116 647.163 175.277 638.172 175.277 638.172C175.277 638.172 176.531 645.625 168.178 654.002C159.825 662.379 158.24 670.779 156.702 683.202C154.833 672.956 144.587 662.402 133.702 653.694C122.817 644.986 117.871 632.256 122.201 621.087C106.678 634.74 100.786 659.279 100.786 659.279C97.3697 653.85 95.3636 647.654 94.9503 641.252C94.5371 634.851 95.7298 628.448 98.4201 622.625C113.588 589.686 87.5825 555.02 87.5825 555.02C87.5825 555.02 101.97 588.574 84.9796 600.453C88.4107 587.107 89.7122 563.136 69.9773 538.361C71.1841 553.979 66.0965 582.067 46.3143 608.049C32.6608 625.985 28.8747 642.597 36.6835 653.718C24.6627 652.511 9.66044 638.384 12.358 629.085C-2.07638 646.193 -8.93863 665.431 3.65005 700.594C9.16352 715.952 9.44747 726.198 8.0277 732.871C9.9424 730.985 11.4638 728.738 12.5036 726.261C13.5435 723.783 14.0811 721.123 14.0854 718.436C14.0854 718.436 19.5279 724.068 16.6173 730.433C34.8141 718.247 31.525 705.161 26.0825 691.886C20.64 678.611 18.9836 665.857 27.171 660.438C24.2605 667.703 26.2718 676.245 35.7133 684.787C45.1548 693.33 44.9892 700.429 44.9892 700.429C44.9892 700.429 56.2528 689.52 48.8226 667.892C41.3924 646.264 50.4553 632.066 59.5419 620.566C68.6285 609.066 69.1727 601.281 69.1727 601.281C69.1727 601.281 70.8055 607.836 63.8959 622.388C56.9863 636.941 60.9854 642.573 60.9854 642.573C60.9854 642.573 62.2632 632.563 68.9834 631.286C65.9072 637.107 65.7179 643.472 77.5494 664.556C97.8995 696.027 82.4476 717.158 82.4476 717.158C82.4476 717.158 91.4632 710.06 93.7585 702.156C97.4499 711.976 92.0075 724.281 86.5177 731.593C110.488 728.162 114.085 710.296 114.085 710.296C114.802 713.782 114.122 717.41 112.192 720.4C123.101 713.585 126.91 706.202 119.291 681.948C111.671 657.693 122.675 646.643 122.675 646.643C122.675 646.643 116.12 660.841 131.951 676.363C147.781 691.886 141.913 706.084 141.913 706.084C141.913 706.084 146.125 703.505 146.645 694.631C151.378 707.859 146.148 723.382 140.895 733.486C143.278 732.96 145.53 731.96 147.518 730.546C149.506 729.131 151.189 727.33 152.466 725.251C152.466 725.251 152.703 730.386 149.414 732.587C152.848 732.718 156.252 731.905 159.256 730.236C162.26 728.567 164.748 726.106 166.451 723.121C167.327 729.936 177.762 733.793 177.762 733.793C153.957 698.914 175.893 672.577 183.394 666.117C190.895 659.657 190.919 654.286 190.919 654.286C190.919 654.286 193.001 658.664 188.552 667.632C184.104 676.6 183.962 682.256 188.552 689.165C188.93 683.415 190.59 677.823 193.412 672.799C196.233 667.775 200.143 663.446 204.856 660.131C218.013 650.311 224.283 641.532 224.686 627.334C230.53 647.376 227.194 653.86 214.676 675.157C202.158 696.453 209.66 706.699 209.66 706.699C209.66 706.699 210.275 697.092 216.333 693.33C212.357 700.429 217.161 710.036 221.562 717.987C225.963 725.937 228.022 722.577 227.407 732.61C231.595 726.34 225.324 719.856 227.62 705.871C227.833 712.331 237.44 725.298 254.146 732.61C246.621 712.355 249.555 701.683 267.515 685.829C285.476 669.975 284.08 657.433 284.08 657.433C284.08 657.433 291.604 669.762 280.956 690.23C284.908 683.344 297.023 674.352 304.335 672.057C290.137 683.131 287.771 693.164 290.35 705.895C292.929 718.625 293.687 723.027 282.399 733.675C294.113 731.309 308.949 724.683 309.139 710.698C309.328 696.714 306.772 689.402 317.302 678.753C312.286 685 319.385 698.583 319.385 698.583C319.385 698.583 320.213 697.968 332.328 684.385C346.124 668.72 338.812 650.547 335.262 642.809C331.713 635.072 328.353 625.678 335.262 619.62C332.896 628.612 338.173 637.793 348.632 653.884C368.059 685.852 345.698 707.149 345.698 707.149C345.698 707.149 348.064 705.469 354.69 705.895C342.148 711.527 344.231 733.888 344.231 733.888C346.11 733.046 347.801 731.835 349.203 730.327C350.605 728.819 351.691 727.044 352.394 725.109C354.453 735.261 365.314 738.337 368.958 739.094C346.834 721.157 362.522 700.074 362.522 700.074Z" fill="url(#paint2_linear)"/>
<g opacity="0.4">
<g opacity="0.4">
<path opacity="0.7" d="M75.6564 520.59C100.242 559.35 114.961 576.979 105.377 637.343C107.009 632.41 109.259 627.703 112.074 623.335C132.069 581.522 110.252 555.328 88.0558 526.956C65.8599 498.584 69.1254 480.34 76.2243 466.213C58.9977 484.599 65.3157 501.684 75.6564 520.59Z" fill="url(#paint3_radial)"/>
</g>
</g>
<path d="M89.9488 655.706C79.0402 643.164 74.1183 624.068 78.496 614.248C73.5741 620.803 68.6758 621.347 68.6758 621.347C81.7614 604.428 70.8528 581.522 70.8528 581.522C70.8528 581.522 68.6758 595.72 52.8453 615.881C33.7493 638.787 40.304 655.161 46.8586 678.611C49.0219 685.141 48.8378 692.222 46.338 698.63C49.1066 694.702 54.3598 684.433 48.7043 667.868C41.2268 646.217 50.3371 632.043 59.4236 620.543C68.5102 609.042 69.0544 601.257 69.0544 601.257C69.0544 601.257 70.6872 607.812 63.7776 622.365C56.868 636.917 60.8671 642.549 60.8671 642.549C60.8671 642.549 62.1449 632.54 68.8651 631.262C65.789 637.083 65.5997 643.448 77.4311 664.532C97.7812 696.004 82.3294 717.135 82.3294 717.135C82.3294 717.135 91.3449 710.036 93.6402 702.132C94.927 705.818 95.2047 709.78 94.4448 713.609C108.832 690.751 98.2782 665.289 89.9488 655.706Z" fill="url(#paint4_linear)"/>
<g style="mix-blend-mode:multiply" opacity="0.5">
<path style="mix-blend-mode:multiply" opacity="0.5" d="M335.617 622.767L334.269 620.046L333.985 619.383L337.274 616.094L335.617 622.767Z" fill="url(#paint5_linear)"/>
<path style="mix-blend-mode:multiply" opacity="0.5" d="M282.115 735.402L288.575 731.001C299.2 723.902 303.98 714.437 302.773 702.936C299.579 676.907 319.858 670.116 320.071 670.045L321.94 669.453L321.443 671.37C321.443 671.37 318.935 681.332 322.792 685.568C324.023 683.533 325.158 681.711 326.365 679.936C332.541 670.471 336.611 664.248 330.554 647.849C322.768 626.813 333.535 617.537 334.008 617.087L335.31 615.999L335.759 617.632C335.759 617.632 335.925 618.247 336.28 619.288L336.517 619.974L335.972 620.447C329.844 625.843 332.494 634.172 336.256 642.359C344.112 659.468 343.071 673.831 333.156 685.095C321.846 697.778 320.26 699.292 320.047 699.458L319.006 700.239L318.414 699.079C318.178 698.653 314.013 690.561 314.439 683.746C309.872 690.135 309.99 695.577 310.18 703.694C310.18 705.894 310.18 708.166 310.18 710.793C309.99 724.257 297.118 730.504 289.451 733.012L282.115 735.402ZM318.935 672.884C314.202 675.109 302.513 682.752 304.974 702.7C305.515 707.333 304.966 712.028 303.372 716.411C301.778 720.794 299.183 724.745 295.793 727.948C301.85 724.706 307.955 719.311 308.074 710.674C308.074 708.19 308.074 705.942 308.074 703.741C307.861 694.039 307.695 687.035 316.592 677.972L318.225 679.415C314.581 683.982 318.225 693.211 319.763 696.713C321.136 695.27 324.33 691.791 331.595 683.651C341.06 672.955 341.912 659.752 334.34 643.259C332.176 639.028 330.789 634.444 330.246 629.723C329.582 635.596 330.396 641.542 332.612 647.021C339.048 664.437 334.505 671.417 328.235 681.048C326.862 683.131 325.466 685.284 324.046 687.721L323.455 688.762L322.484 688.076C317.61 684.716 318.296 676.694 318.935 672.884Z" fill="url(#paint6_linear)"/>
<path style="mix-blend-mode:multiply" opacity="0.5" d="M346.337 708.166L344.964 706.463C345.863 705.635 366.426 685.379 347.709 654.57C336.777 637.722 331.855 628.754 334.221 619.501L335.12 615.952L336.304 619.407C340.39 630.74 346.983 641.004 355.589 649.435C358.869 652.675 361.395 656.598 362.986 660.925C364.577 665.252 365.195 669.877 364.794 674.47C364.354 680.815 362.639 687.007 359.752 692.674C356.866 698.342 352.866 703.369 347.993 707.457H347.827H347.638C347.176 707.637 346.739 707.876 346.337 708.166ZM335.83 624.234C335.83 631.499 340.705 639.757 349.555 653.41C359.824 670.306 358.452 684.172 355.494 692.975C354.636 695.528 353.535 697.992 352.205 700.334C358.292 692.948 361.931 683.851 362.617 674.305C362.983 670.024 362.409 665.715 360.933 661.681C359.457 657.646 357.116 653.983 354.074 650.949C346.287 643.292 340.088 634.173 335.83 624.116V624.234Z" fill="url(#paint7_linear)"/>
</g>
</g>
<defs>
<radialGradient id="paint0_radial" cx="0" cy="0" r="1" gradientUnits="userSpaceOnUse" gradientTransform="translate(184 320.5) rotate(90) scale(320.5 217.039)">
<stop stop-color="white"/>
<stop offset="0.5" stop-color="#FFF3E0"/>
<stop offset="1" stop-color="#FFC671"/>
</radialGradient>
<linearGradient id="paint1_linear" x1="179.963" y1="731.356" x2="179.963" y2="577.097" gradientUnits="userSpaceOnUse">
<stop stop-color="#FFCA18"/>
<stop offset="0.33" stop-color="#FFA018"/>
<stop offset="1" stop-color="#D00800"/>
</linearGradient>
<linearGradient id="paint2_linear" x1="182.991" y1="736.87" x2="182.991" y2="585.001" gradientUnits="userSpaceOnUse">
<stop offset="0.04" stop-color="#FFE818"/>
<stop offset="0.33" stop-color="#F67D11"/>
<stop offset="0.78" stop-color="#D63207"/>
<stop offset="0.97" stop-color="#BB1807"/>
</linearGradient>
<radialGradient id="paint3_radial" cx="0" cy="0" r="1" gradientUnits="userSpaceOnUse" gradientTransform="translate(4358.01 15701.9) scale(1795.31 5642.17)">
<stop offset="0.25" stop-color="white"/>
<stop offset="0.71" stop-color="#FFFF18"/>
<stop offset="1" stop-color="#FFA018"/>
</radialGradient>
<linearGradient id="paint4_linear" x1="3265.75" y1="22809.7" x2="3265.75" y2="16313.9" gradientUnits="userSpaceOnUse">
<stop offset="0.05" stop-color="#FFFF18"/>
<stop offset="0.51" stop-color="#FFA018"/>
<stop offset="1" stop-color="#E54B0B"/>
</linearGradient>
<linearGradient id="paint5_linear" x1="874.983" y1="1422.86" x2="874.983" y2="1404.1" gradientUnits="userSpaceOnUse">
<stop stop-color="#FFCA18"/>
<stop offset="0.33" stop-color="#FFA018"/>
<stop offset="1" stop-color="#D00800"/>
</linearGradient>
<linearGradient id="paint6_linear" x1="9445.04" y1="20736.6" x2="9445.04" y2="14711.5" gradientUnits="userSpaceOnUse">
<stop stop-color="#FFCA18"/>
<stop offset="0.33" stop-color="#FFA018"/>
<stop offset="1" stop-color="#D07D00"/>
</linearGradient>
<linearGradient id="paint7_linear" x1="5657.24" y1="15089" x2="5657.24" y2="11495.4" gradientUnits="userSpaceOnUse">
<stop stop-color="#FFCA18"/>
<stop offset="0.33" stop-color="#FFA018"/>
<stop offset="1" stop-color="#D00800"/>
</linearGradient>
</defs>
</svg>
