<svg width="253" height="95" viewBox="0 0 253 95" fill="none" xmlns="http://www.w3.org/2000/svg">
<g filter="url(#filter0_d)">
<g filter="url(#filter1_d)">
<path d="M232.143 41.5C232.143 56.6257 218.707 69 202.273 69H49.8697C33.4357 69 20 56.6257 20 41.5C20 26.3743 33.4357 14 49.8697 14H202.273C218.707 14 232.143 26.3743 232.143 41.5Z" fill="url(#paint0_linear)"/>
</g>
<path d="M50.043 64.2857C36.0734 64.2857 24.7143 54.0603 24.7143 41.5C24.7143 28.9398 36.0734 18.7143 50.043 18.7143H202.1C216.069 18.7143 227.429 28.9398 227.429 41.5C227.429 54.0603 216.069 64.2857 202.1 64.2857H50.043Z" fill="#C00F0F"/>
</g>
<defs>
<filter id="filter0_d" x="0" y="0" width="252.143" height="95" filterUnits="userSpaceOnUse" color-interpolation-filters="sRGB">
<feFlood flood-opacity="0" result="BackgroundImageFix"/>
<feColorMatrix in="SourceAlpha" type="matrix" values="0 0 0 0 0 0 0 0 0 0 0 0 0 0 0 0 0 0 127 0"/>
<feOffset dy="6"/>
<feGaussianBlur stdDeviation="10"/>
<feColorMatrix type="matrix" values="0 0 0 0 0.968627 0 0 0 0 0.705098 0 0 0 0 0.027451 0 0 0 0.2 0"/>
<feBlend mode="normal" in2="BackgroundImageFix" result="effect1_dropShadow"/>
<feBlend mode="normal" in="SourceGraphic" in2="effect1_dropShadow" result="shape"/>
</filter>
<filter id="filter1_d" x="12" y="10" width="228.143" height="71" filterUnits="userSpaceOnUse" color-interpolation-filters="sRGB">
<feFlood flood-opacity="0" result="BackgroundImageFix"/>
<feColorMatrix in="SourceAlpha" type="matrix" values="0 0 0 0 0 0 0 0 0 0 0 0 0 0 0 0 0 0 127 0"/>
<feOffset dy="4"/>
<feGaussianBlur stdDeviation="4"/>
<feColorMatrix type="matrix" values="0 0 0 0 0 0 0 0 0 0 0 0 0 0 0 0 0 0 0.15 0"/>
<feBlend mode="normal" in2="BackgroundImageFix" result="effect1_dropShadow"/>
<feBlend mode="normal" in="SourceGraphic" in2="effect1_dropShadow" result="shape"/>
</filter>
<linearGradient id="paint0_linear" x1="67.2371" y1="-14.6059" x2="179.323" y2="102.93" gradientUnits="userSpaceOnUse">
<stop stop-color="#B9892D"/>
<stop offset="0.23" stop-color="#F9C306"/>
<stop offset="0.34" stop-color="#D0BA45"/>
<stop offset="0.49" stop-color="#C99F0A"/>
<stop offset="0.58" stop-color="#9C7B03"/>
<stop offset="0.73" stop-color="#FFD338"/>
<stop offset="0.8" stop-color="#FFD465"/>
<stop offset="0.83" stop-color="#DCC818"/>
<stop offset="0.89" stop-color="#C79B00"/>
<stop offset="0.96" stop-color="#D89B00"/>
<stop offset="1" stop-color="#967500"/>
</linearGradient>
</defs>
</svg>
