<svg width="47" height="60" viewBox="0 0 47 60" fill="none" xmlns="http://www.w3.org/2000/svg">
<g filter="url(#filter0_d)">
<path d="M35.3554 32.6908C34.9091 31.2946 34.3151 29.8871 34.3184 28.385C34.3184 26.6255 35.4196 25.3996 35.8723 23.7991C36.0038 23.4395 36.0419 23.042 35.9819 22.6568C35.9219 22.2716 35.7665 21.916 35.5352 21.6348C35.2734 21.3337 34.9862 21.0649 34.678 20.8327C34.7549 21.104 34.75 21.3983 34.664 21.6658C34.578 21.9334 34.4162 22.1577 34.206 22.3008C33.6386 22.7417 33.0339 23.112 32.4016 23.4056C31.4534 23.8926 30.5951 24.593 29.8747 25.4677C29.5322 25.8994 29.2465 26.3892 29.0271 26.9207C29.077 26.6195 29.1534 26.3253 29.2551 26.0429C29.4636 25.47 29.7499 24.9409 30.1027 24.4764C30.5297 23.9013 31.0659 23.4018 31.4576 22.7926C32.1351 21.7105 32.042 20.2386 31.7498 19.0354C31.6014 18.3647 31.3332 17.7391 30.9632 17.2003C30.8123 16.9809 30.6421 16.7955 30.504 16.5647C30.4318 16.4134 30.3188 16.2949 30.183 16.2279C30.1091 16.2014 30.0128 16.3603 30.0032 16.4209C29.9838 16.5281 29.9838 16.639 30.0032 16.7463C30.0538 17.078 30.0362 17.4193 29.9518 17.7414C29.8522 18.2617 29.651 18.7476 29.3642 19.1603C29.4168 18.9124 29.4479 18.6588 29.4573 18.4035C29.4692 18.0102 29.4423 17.6166 29.3771 17.2306C29.2114 16.4447 28.8608 15.73 28.3657 15.1685C26.7604 13.3069 24.4615 12.9853 22.3778 12.2323C20.66 11.6156 18.435 10.541 18.8909 8.04752C18.9806 7.54851 19.1967 7.09332 19.5106 6.74213C19.6843 6.57262 19.8264 6.36265 19.928 6.12539C19.9473 6.06863 19.9569 5.99296 19.883 6.00053C19.5011 6.09943 19.1319 6.25718 18.785 6.46971C18.2495 6.70581 17.7327 6.99701 17.2406 7.33996C16.4137 7.88358 15.6433 8.53879 14.945 9.29236C13.4295 10.9534 12.4824 13.5074 12.8709 15.8836C13.2497 18.1841 14.9161 19.5727 15.9724 21.4532C16.8361 22.9894 16.3673 24.9304 15.0445 25.9256C15.0292 25.2551 14.9106 24.5936 14.6945 23.9732C14.3648 23.2163 13.8504 22.593 13.2176 22.1835C12.6514 21.6972 11.9875 21.3934 11.2912 21.3019C11.7909 21.5783 12.2419 21.9635 12.6204 22.437C14.0781 24.3591 13.1823 26.7882 12.2544 28.7293C11.2912 30.7649 10.084 32.7476 10.0069 35.1351C9.84638 39.2594 12.5016 42.4793 15.6224 44.1858C16.5718 44.6914 17.5657 45.0721 18.5859 45.3209C19.9585 45.6823 21.355 45.9038 22.7598 45.983C26.9883 46.1684 33.8496 44.882 35.6668 39.8042C36.4599 37.5907 36.1741 35.3319 35.5288 33.126L35.3554 32.6908Z" fill="#E63E33"/>
</g>
<path d="M31.4094 36.4821C31.1333 35.5211 30.7673 34.5487 30.7673 33.5157C30.7673 32.3011 31.4544 31.4574 31.7305 30.3525C31.8132 30.1047 31.8372 29.8351 31.7999 29.5725C31.7625 29.3099 31.6653 29.0642 31.5186 28.8617C31.3579 28.656 31.1792 28.4709 30.9856 28.3093C31.0351 28.4933 31.0331 28.6912 30.9799 28.8738C30.9267 29.0563 30.8252 29.214 30.6902 29.3233C30.339 29.621 29.9624 29.8747 29.5665 30.0801C28.9653 30.4231 28.4291 30.9058 27.99 31.499C27.7728 31.8009 27.5943 32.1387 27.4603 32.5017C27.4904 32.2949 27.5377 32.0921 27.6015 31.8963C27.7289 31.5062 27.9077 31.1423 28.1313 30.8179C28.3978 30.4206 28.7381 30.0612 28.9757 29.6563C29.3995 28.8996 29.3385 27.8969 29.1587 27.0683C29.0677 26.6128 28.9007 26.1832 28.6675 25.8045C28.5744 25.6531 28.4684 25.5245 28.3817 25.3656C28.3384 25.2639 28.2671 25.1825 28.1795 25.1348C28.1345 25.1348 28.0735 25.2256 28.0703 25.2672C28.0575 25.3409 28.0575 25.4168 28.0703 25.4904C28.1032 25.7187 28.0922 25.9527 28.0382 26.1753C27.9786 26.5296 27.8537 26.8642 27.6722 27.1553C27.7046 26.9887 27.724 26.819 27.73 26.6483C27.7387 26.3769 27.7214 26.1053 27.6786 25.8385C27.5775 25.3047 27.3556 24.813 27.0364 24.4159C26.0411 23.1332 24.5995 22.9024 23.2992 22.3954C22.2268 21.9678 20.8398 21.23 21.1255 19.5084C21.179 19.1724 21.3126 18.8613 21.5108 18.6117C21.6218 18.4935 21.7104 18.3491 21.7709 18.1879C21.7709 18.1463 21.7902 18.0971 21.742 18.1009C21.5027 18.171 21.2727 18.2792 21.0581 18.4225C20.7226 18.5877 20.4003 18.7877 20.0949 19.0203C19.5742 19.4012 19.0935 19.8534 18.6629 20.3673C18.1685 20.958 17.7957 21.6745 17.573 22.4616C17.3504 23.2488 17.2839 24.0856 17.3787 24.9078C17.613 26.4931 18.6629 27.4542 19.3051 28.7482C19.5562 29.2535 19.6362 29.8518 19.5291 30.4236C19.4219 30.9954 19.1355 31.4984 18.7271 31.8319C18.7192 31.3717 18.6454 30.9163 18.5088 30.4849C18.3134 29.9743 17.9924 29.5446 17.5874 29.2515C17.2432 28.9178 16.8256 28.7065 16.3833 28.6423C16.6982 28.8294 16.9794 29.0863 17.2117 29.399C18.1235 30.7233 17.5649 32.3957 16.9837 33.7351C16.3769 35.1389 15.632 36.5048 15.5742 38.1507C15.4715 40.9885 17.1282 43.2096 19.0771 44.3863C19.6655 44.7315 20.2862 44.9944 20.9265 45.1695C21.7768 45.4187 22.6456 45.5708 23.5207 45.6236C26.1599 45.756 30.4398 44.8668 31.5764 41.3707C32.0708 39.8572 31.8974 38.287 31.4897 36.7659C31.4672 36.6864 31.4415 36.5843 31.4094 36.4821Z" fill="#FCB236"/>
<path d="M28.5134 39.9479C28.3028 39.3937 28.1737 38.8013 28.1313 38.1961C28.1313 37.481 28.5358 36.9815 28.7028 36.3307C28.7515 36.1842 28.7656 36.0248 28.7436 35.8695C28.7215 35.7143 28.6641 35.569 28.5776 35.4491C28.4807 35.3274 28.3731 35.2183 28.2565 35.1237C28.2854 35.2321 28.2842 35.3486 28.253 35.4561C28.2218 35.5637 28.1623 35.6566 28.0831 35.7215C27.875 35.8977 27.6524 36.0485 27.4185 36.1718C27.0638 36.3743 26.7471 36.6586 26.4874 37.008C26.3561 37.1863 26.2479 37.3865 26.1663 37.602C26.1832 37.4791 26.2112 37.3586 26.2498 37.2426C26.3285 37.0114 26.4368 36.7957 26.5709 36.6031C26.7282 36.3723 26.9305 36.168 27.0717 35.9183C27.1748 35.6874 27.2373 35.4343 27.2555 35.1743C27.2737 34.9142 27.2473 34.6525 27.1777 34.4048C27.1242 34.1328 27.026 33.8757 26.8887 33.6481C26.8342 33.561 26.7699 33.4854 26.7186 33.3908C26.6937 33.3304 26.6516 33.2822 26.5998 33.2546C26.5741 33.2546 26.5388 33.3075 26.5356 33.334C26.5275 33.3776 26.5275 33.4228 26.5356 33.4664C26.5534 33.6015 26.5468 33.7394 26.5163 33.8713C26.4802 34.0789 26.4068 34.275 26.3012 34.4464C26.3188 34.348 26.3295 34.248 26.3333 34.1475C26.3383 33.9878 26.3286 33.828 26.3044 33.6708C26.2455 33.3569 26.117 33.067 25.9319 32.8308C25.3444 32.074 24.4936 31.9416 23.7262 31.6351C23.0841 31.3854 22.275 30.9503 22.4419 29.9325C22.4742 29.7342 22.5532 29.5506 22.6699 29.4027C22.7345 29.332 22.7868 29.2472 22.824 29.153C22.824 29.1303 22.824 29.1 22.8079 29.1C22.6661 29.1419 22.53 29.2068 22.4034 29.293C22.205 29.3891 22.0148 29.5069 21.8351 29.6449C21.5277 29.8707 21.2433 30.1373 20.9875 30.4395C20.695 30.7884 20.474 31.2115 20.3416 31.6764C20.2091 32.1414 20.1687 32.6359 20.2233 33.1221C20.3646 34.0567 20.9778 34.6356 21.3663 35.3924C21.5142 35.6906 21.5612 36.0435 21.4982 36.3808C21.4351 36.7181 21.2665 37.015 21.026 37.2123C21.0195 36.9407 20.975 36.6723 20.8944 36.4177C20.7801 36.1154 20.5909 35.8609 20.3517 35.6875C20.1492 35.487 19.9037 35.3561 19.6422 35.3091C19.8287 35.4226 19.9945 35.5782 20.1302 35.7669C20.6664 36.5464 20.3389 37.5339 19.9954 38.3247C19.6518 39.1155 19.1959 39.9593 19.1606 40.9317C19.1028 42.6079 20.082 43.9171 21.2315 44.6133C21.5784 44.8179 21.9449 44.9728 22.3231 45.0749C22.825 45.2227 23.3379 45.3126 23.8546 45.3435C25.4118 45.423 27.9386 44.897 28.6097 42.8311C28.8579 41.9455 28.8397 40.9862 28.5583 40.1144L28.5134 39.9479Z" fill="#FBEE35"/>
<g style="mix-blend-mode:screen">
<path d="M14.8872 42.6344C14.0197 41.2781 13.3978 39.7262 13.0603 38.075C12.9907 37.7128 12.9371 37.3465 12.8997 36.9778V36.9134C12.759 35.937 12.7677 34.9387 12.9254 33.9659C13.0739 32.726 13.2949 31.4997 13.5868 30.2957C13.8597 29.119 14.1969 27.9574 14.1616 26.7201C14.1499 26.0721 14.0412 25.4317 13.8405 24.8282C13.863 25.1499 13.8405 25.4942 13.8405 25.7742C13.8407 26.3992 13.7314 27.0175 13.5194 27.5904C13.1859 28.563 12.7876 29.5031 12.3282 30.4017C11.5031 32.0022 10.8385 33.6027 10.7775 35.5097C10.7165 37.4167 11.4935 39.2934 12.4278 40.7501C12.9481 41.5295 13.5753 42.2009 14.2836 42.7366C14.6496 43.0241 15.0541 43.2474 15.4426 43.4933H15.4715C15.2628 43.2209 15.0702 42.9295 14.8872 42.6344Z" fill="#E63E33"/>
</g>
<g style="mix-blend-mode:screen">
<path d="M17.5553 7.56702C17.5553 7.56702 13.9465 9.83724 13.6125 13.5756C13.4011 15.1729 13.7347 16.8039 14.5404 18.1122C14.5404 18.1122 12.6814 11.3848 17.5553 7.56702Z" fill="#E63E33"/>
</g>
<defs>
<filter id="filter0_d" x="0" y="0" width="46.1487" height="60" filterUnits="userSpaceOnUse" color-interpolation-filters="sRGB">
<feFlood flood-opacity="0" result="BackgroundImageFix"/>
<feColorMatrix in="SourceAlpha" type="matrix" values="0 0 0 0 0 0 0 0 0 0 0 0 0 0 0 0 0 0 127 0"/>
<feOffset dy="4"/>
<feGaussianBlur stdDeviation="5"/>
<feColorMatrix type="matrix" values="0 0 0 0 1 0 0 0 0 0.36 0 0 0 0 0 0 0 0 0.8 0"/>
<feBlend mode="normal" in2="BackgroundImageFix" result="effect1_dropShadow"/>
<feBlend mode="normal" in="SourceGraphic" in2="effect1_dropShadow" result="shape"/>
</filter>
</defs>
</svg>
