<svg width="61" height="56" viewBox="0 0 61 56" fill="none" xmlns="http://www.w3.org/2000/svg">
<g filter="url(#filter0_d)">
<path d="M24.7568 14.371C24.7568 14.371 24.6373 10.9507 21.4561 7.05238C18.2748 3.15401 16.7731 3.25821 15.6943 5.85099C14.6155 8.44378 12.5131 17.1906 15.1549 21.4537C17.5546 18.2755 24.7568 14.371 24.7568 14.371Z" fill="#212121"/>
<g style="mix-blend-mode:multiply" opacity="0.5">
<g style="mix-blend-mode:multiply" opacity="0.5">
<path d="M22.5594 8.56026C23.5738 10.8956 22.9088 12.0173 21.6124 9.36936C19.6019 5.26871 17.101 4.32477 17.101 4.32477C17.101 4.32477 16.9386 4.49027 17.2236 5.14612C13.6562 9.28661 14.5573 16.7125 14.2294 15.03C13.8708 12.1215 14.7504 8.66446 15.5288 6.27395C14.4194 9.27742 12.6418 17.399 15.1549 21.4537C17.5546 18.2755 24.7568 14.371 24.7568 14.371C24.7568 14.371 24.6649 11.7936 22.5594 8.56026Z" fill="#212121"/>
</g>
</g>
<path d="M17.5546 5.01123C12.8042 13.0133 15.6054 18.6157 16.4819 20.0285C18.1376 18.5769 19.9168 17.2725 21.7993 16.1302C22.1609 11.6679 21.0944 9.78612 17.5546 5.01123Z" fill="#CC839B"/>
<g style="mix-blend-mode:multiply">
<g style="mix-blend-mode:multiply">
<path d="M17.6925 5.19513C17.0664 6.65775 16.7332 8.22898 16.7118 9.81985C16.9058 9.60295 17.167 9.45729 17.4535 9.40611C17.5944 9.37852 17.5209 9.65435 17.5025 9.71258C16.9294 11.245 17.6619 10.5983 18.3453 10.4389C18.4556 10.4113 18.4342 10.6075 18.4219 10.6535C17.8641 12.7743 17.2175 14.5855 18.1767 16.7125C18.389 17.1819 18.638 17.6338 18.9215 18.064C19.893 17.3561 20.8952 16.6849 21.7993 16.1302C22.1548 11.7261 21.1189 9.83211 17.6925 5.19513Z" fill="#755858"/>
</g>
</g>
<path d="M37.5093 15.8574C37.5093 15.8574 40.7579 10.7515 49.6273 8.61539C51.9474 8.19858 52.6921 9.03219 52.0791 13.2125C51.4662 17.3929 49.1554 24.261 45.5819 27.8345C45.588 27.8345 43.2526 19.48 37.5093 15.8574Z" fill="#212121"/>
<g style="mix-blend-mode:multiply" opacity="0.5">
<g style="mix-blend-mode:multiply" opacity="0.5">
<path d="M48.196 21.5089C49.4894 18.7046 51.8738 12.1797 51.3221 8.83609C45.3366 8.77479 39.7833 15.8452 40.8008 13.5282C41.2138 12.7078 41.787 11.9783 42.4864 11.3829C38.9344 13.5282 37.5031 15.7655 37.5031 15.7655C43.2526 19.3697 45.5879 27.7273 45.5879 27.7273C48.0397 25.2754 49.8786 21.2913 51.0126 17.681C49.2902 21.5855 47.3226 23.3968 48.196 21.5089Z" fill="#212121"/>
</g>
</g>
<path d="M39.6638 18.0733C39.6638 18.0733 42.3332 10.6504 50.8011 9.13031C51.1811 14.1504 47.4299 23.314 44.3804 26.0754C44.3804 26.0754 42.753 21.4169 39.6638 18.0733Z" fill="#CC839B"/>
<g style="mix-blend-mode:multiply">
<path d="M43.0442 22.0575C43.8599 21.5127 44.5727 20.8279 45.1497 20.0347C45.5542 19.4218 46.0446 18.5422 45.8852 17.7729C45.8025 17.3745 45.6891 16.9853 45.6094 16.5838C45.5787 16.4152 45.7442 16.075 45.9343 16.0536C46.492 15.9954 46.7832 16.3172 47.1295 16.6665C47.1477 16.1076 47.0244 15.553 46.7709 15.0545C46.7035 14.8951 46.9671 14.3251 47.1479 14.5151C47.44 14.8293 47.6893 15.1807 47.8896 15.5602C47.9084 14.8796 47.6585 14.219 47.1939 13.7213C47.0743 13.6018 47.3042 13.2585 47.4023 13.1911C48.8059 12.2441 50.1606 10.8129 50.657 9.14563C42.2964 10.724 39.6638 18.0579 39.6638 18.0579C40.8262 19.3532 41.8303 20.7823 42.655 22.3149C42.7867 22.2413 42.9185 22.1525 43.0442 22.0575Z" fill="#755858"/>
</g>
<path d="M8.00789 28.3034C8.00789 28.3034 11.0022 30.035 12.4426 25.9558C13.883 21.8766 15.5074 18.1529 20.1229 15.5724C18.9215 14.9594 18.9215 14.2515 18.9215 14.2515C18.9215 14.2515 20.0034 15.6337 24.2634 14.0737C28.5234 12.5138 37.2058 12.8478 42.088 19.2348C46.9701 25.6217 46.1151 31.4233 48.0888 32.1956C48.4133 32.3039 48.7594 32.3306 49.0967 32.2734C49.434 32.2162 49.752 32.0769 50.0227 31.8677C50.0227 31.8677 49.6855 33.446 47.3716 33.8966C47.8118 34.013 48.2029 34.2676 48.4876 34.6228C48.7722 34.9781 48.9354 35.4154 48.9531 35.8703C48.3776 35.4358 47.7273 35.1107 47.0345 34.911C47.7118 36.1369 47.6475 36.7744 47.6475 36.7744C47.179 36.1989 46.5527 35.7729 45.8454 35.5485C46.4093 38.4232 38.7811 43.4923 29.1792 43.9735C19.5773 44.4547 15.1365 38.273 12.9759 34.2521C11.5354 31.8003 9.55559 33.112 9.01313 34.1325C8.35421 32.6921 10.095 31.7298 10.095 31.7298C10.095 31.7298 8.83537 31.552 8.53503 32.2722C8.59326 31.1322 10.1563 30.5315 10.1563 30.5315C10.1563 30.5315 7.84852 30.415 8.00789 28.3034Z" fill="#212121"/>
<g style="mix-blend-mode:multiply" opacity="0.5">
<path d="M15.0568 23.3109C15.0568 23.3109 18.1492 22.9861 19.041 25.9374L19.2433 25.5329C20.7568 25.7651 22.3045 25.4823 23.6381 24.7299C23.963 21.2422 22.3418 16.7401 17.2022 20.5925C16.7149 21.3617 17.3217 23.1485 17.3217 23.1485C17.3217 23.1485 16.5248 22.4988 15.0568 23.3109Z" fill="#D98D4A"/>
</g>
<g style="mix-blend-mode:multiply" opacity="0.5">
<path d="M33.5772 29.3577C33.5772 29.3577 35.9125 26.0814 40.0408 26.7526C39.1428 26.1397 38.5084 26.2163 38.5084 26.2163C38.9513 25.4685 39.1842 24.6152 39.1826 23.7461C39.2286 22.1739 36.4427 18.9865 32.9428 20.3749C29.4428 21.7632 29.5715 25.7167 29.6206 25.9864C30.966 27.6475 34.1104 27.9632 34.1104 27.9632C33.9055 28.1271 33.748 28.3428 33.6542 28.5879C33.5605 28.8331 33.5339 29.0988 33.5772 29.3577Z" fill="#D98D4A"/>
</g>
<g style="mix-blend-mode:multiply" opacity="0.5">
<path d="M50.0349 31.8677C49.7642 32.0769 49.4462 32.2162 49.109 32.2734C48.7717 32.3306 48.4256 32.3039 48.1011 32.1956C46.1274 31.4233 46.9794 25.634 42.1003 19.2348C38.4226 14.3986 32.5627 13.0348 28.0821 13.329C40.4208 13.0225 44.0188 24.4387 44.1414 27.1541C44.1698 28.4527 44.6355 29.7037 45.463 30.7048C46.2906 31.7059 47.4317 32.3985 48.7017 32.6707C47.5004 33.1488 44.8585 32.1895 44.8585 32.1895L46.1795 34.1111C45.5665 33.9916 44.5 34.1111 43.4212 31.8309C43.2986 37.1115 34.4169 40.1058 33.6967 35.7906C32.6179 29.7898 26.1359 27.3901 23.6167 27.0285C21.0975 26.6668 23.0038 25.7075 23.0038 25.7075C12.2005 27.8529 15.2009 36.5108 14.0853 33.2806C12.9697 30.0503 11.8848 31.267 10.7723 32.024C10.993 31.1046 12.0197 30.6878 12.0197 30.6878C12.0197 30.6878 10.9501 30.6878 10.5486 31.1322C10.5486 30.3323 11.7224 29.4282 11.7224 29.4282C9.84676 29.9216 8.7036 29.4588 8.02936 28.8029C8.23163 30.4303 10.1747 30.5161 10.1747 30.5161C10.1747 30.5161 8.61166 31.1291 8.55343 32.2569C8.85991 31.5367 10.1134 31.7145 10.1134 31.7145C10.1134 31.7145 8.37261 32.6768 9.03153 34.1172C9.574 33.0967 11.5538 31.7758 12.9943 34.2368C15.1396 38.2577 19.5958 44.4393 29.1976 43.9582C38.7995 43.477 46.4277 38.4079 45.8638 35.5332C46.5711 35.7576 47.1974 36.1836 47.6659 36.7591C47.6659 36.7591 47.7241 36.1461 47.0529 34.8957C47.7457 35.0954 48.396 35.4205 48.9715 35.855C48.9538 35.4 48.7906 34.9628 48.506 34.6075C48.2213 34.2522 47.8302 33.9977 47.39 33.8813C49.6886 33.4461 50.0349 31.8677 50.0349 31.8677Z" fill="#C87739"/>
</g>
<path d="M17.3738 20.9541C17.3738 20.9541 16.6934 27.0346 23.2949 24.595C23.5769 20.8744 21.214 17.5522 17.3738 20.9541Z" fill="white"/>
<path d="M22.4122 23.36C21.9403 24.638 20.7726 25.3796 19.8072 25.0211C18.8418 24.6625 18.4281 23.3385 18.9092 22.0636C19.3904 20.7886 20.5489 20.0439 21.5143 20.4025C22.4797 20.761 22.8812 22.085 22.4122 23.36Z" fill="#247C24"/>
<path d="M22.3019 22.5937C22.1898 22.8585 22.0025 23.0845 21.7632 23.2437C21.5239 23.4029 21.2431 23.4884 20.9557 23.4895C20.6682 23.4906 20.3867 23.4073 20.1462 23.2499C19.9057 23.0925 19.7166 22.868 19.6026 22.6041C19.4885 22.3403 19.4544 22.0487 19.5045 21.7657C19.5545 21.4826 19.6866 21.2205 19.8843 21.0118C20.082 20.8032 20.3366 20.6571 20.6166 20.5918C20.8965 20.5265 21.1895 20.5449 21.4591 20.6446C21.8293 20.7913 22.1261 21.0791 22.2841 21.4446C22.4422 21.8102 22.4486 22.2235 22.3019 22.5937Z" fill="#5A9661"/>
<path d="M20.9228 21.8766C20.8623 21.9595 20.7798 22.0238 20.6848 22.0624C20.5897 22.101 20.4857 22.1123 20.3846 22.0951C20.2834 22.0779 20.1891 22.0328 20.1122 21.9648C20.0352 21.8969 19.9788 21.8089 19.9491 21.7107C19.9195 21.6125 19.9178 21.5079 19.9443 21.4088C19.9708 21.3096 20.0245 21.2199 20.0992 21.1496C20.1739 21.0792 20.2668 21.0311 20.3673 21.0107C20.4679 20.9903 20.5721 20.9983 20.6684 21.0338C20.811 21.1146 20.9171 21.2473 20.9644 21.4043C21.0118 21.5612 20.9969 21.7304 20.9228 21.8766Z" fill="white"/>
<g style="mix-blend-mode:multiply" opacity="0.5">
<g style="mix-blend-mode:multiply" opacity="0.5">
<path d="M17.3738 20.9541C17.3738 20.9541 16.6934 27.0346 23.2949 24.595C23.5769 20.8744 21.214 17.5522 17.3738 20.9541ZM22.6115 23.8196C22.2406 24.6747 20.9289 24.9291 19.6785 24.3897C18.4281 23.8503 17.7171 22.7194 18.0848 21.8643C18.4526 21.0093 19.7674 20.7549 21.0178 21.2943C22.2682 21.8337 22.9793 22.9646 22.6115 23.8196Z" fill="#B8BBBC"/>
</g>
</g>
<path d="M30.0742 25.7413C30.0742 25.7413 32.4493 28.0552 35.5049 27.4637C38.5605 26.8722 38.6555 23.7921 38.6555 23.7921C38.6555 23.7921 37.2028 20.05 34.0583 20.5251C30.9139 21.0001 30.0742 24.8495 30.0742 25.7413Z" fill="white"/>
<path d="M37.4296 24.8403C37.2825 26.5105 36.1393 27.7702 34.8736 27.6598C33.6078 27.5495 32.7037 26.1029 32.8508 24.4357C32.9979 22.7685 34.1442 21.5058 35.4099 21.6192C36.6756 21.7326 37.5889 23.1792 37.4296 24.8403Z" fill="#247C24"/>
<path d="M37.0649 23.9668C37.0173 24.3176 36.8678 24.6467 36.635 24.9133C36.4021 25.18 36.0961 25.3724 35.7549 25.4667C35.4137 25.561 35.0523 25.5531 34.7155 25.444C34.3788 25.3348 34.0815 25.1292 33.8605 24.8527C33.6395 24.5761 33.5045 24.2408 33.4723 23.8882C33.4402 23.5357 33.5122 23.1815 33.6794 22.8695C33.8467 22.5575 34.1019 22.3014 34.4133 22.1331C34.7247 21.9648 35.0787 21.8916 35.4313 21.9226C35.6734 21.9481 35.908 22.0214 36.1215 22.1383C36.3351 22.2551 36.5233 22.4132 36.6752 22.6034C36.8272 22.7935 36.9399 23.012 37.0067 23.246C37.0736 23.4801 37.0934 23.7251 37.0649 23.9668Z" fill="#5A9661"/>
<path d="M35.1923 23.5592C35.1494 24.0342 34.8245 24.3928 34.4629 24.3621C34.1012 24.3315 33.8499 23.9178 33.8898 23.4427C33.9296 22.9677 34.2575 22.6091 34.6161 22.6428C34.9747 22.6765 35.2352 23.0841 35.1923 23.5592Z" fill="white"/>
<g style="mix-blend-mode:multiply" opacity="0.5">
<g style="mix-blend-mode:multiply" opacity="0.5">
<path d="M34.0583 20.5158C30.9108 20.9909 30.0742 24.8494 30.0742 25.7259C30.0742 25.7259 32.4493 28.0398 35.5049 27.4483C38.5605 26.8568 38.6555 23.7921 38.6555 23.7921C38.6555 23.7921 37.1936 20.0408 34.0583 20.5158ZM35.4099 26.8568C33.6048 27.3502 31.8701 26.7587 31.536 25.5359C31.202 24.3131 32.3972 22.9217 34.2054 22.4282C36.0137 21.9348 37.7452 22.5294 38.0793 23.7522C38.4134 24.9751 37.2181 26.3726 35.4099 26.8568Z" fill="#B8BBBC"/>
</g>
</g>
<g style="mix-blend-mode:multiply" opacity="0.5">
<path d="M22.4122 28.2758C22.4122 28.2758 15.538 27.4912 16.439 33.7341C17.5178 39.8636 22.9792 45.9748 29.8228 42.4932C36.6664 39.0116 31.3368 28.6374 22.4122 28.2758Z" fill="#D98D4A"/>
</g>
<path d="M21.7993 27.6384C21.7993 27.6384 14.9128 26.8568 15.8138 33.0967C16.8957 39.2262 22.354 45.3373 29.1976 41.8588C36.0412 38.3803 30.6871 28 21.7993 27.6384Z" fill="#FFFDEE"/>
<path d="M21.168 38.981C21.168 38.981 22.8444 41.9018 24.6097 41.675C26.375 41.4482 26.6478 39.1833 26.6048 38.1873C25.7437 38.7757 23.1601 39.2078 22.0966 37.8808C21.8596 38.3031 21.5445 38.6765 21.168 38.981Z" fill="#D9D4A2"/>
<path d="M21.692 36.9705C21.692 36.9705 22.3908 37.8716 21.358 39.0025C22.4245 40.2038 23.2918 41.8036 24.8916 41.3041C26.4914 40.8045 26.2585 38.27 26.2585 38.27C26.2585 38.27 23.3593 40.1088 21.692 36.9705Z" fill="#943724"/>
<path d="M23.9906 39.643C24.9989 39.5081 25.4464 39.03 25.6456 38.5673C24.7262 38.9074 22.9854 39.1955 21.7932 37.1575C21.8991 37.4074 21.9368 37.6809 21.9024 37.9502C21.8679 38.2194 21.7625 38.4747 21.597 38.6898C21.9097 39.1496 22.6237 39.8269 23.9906 39.643Z" fill="#F9F9F9"/>
<path d="M24.0641 41.3869C24.5138 41.4507 24.9709 41.3421 25.3438 41.0829C25.7167 40.8237 25.9778 40.433 26.0746 39.9894C24.5576 39.4959 24.1683 40.7065 24.0641 41.3869Z" fill="#BB4933"/>
<path d="M29.1731 31.693C27.5569 32.0967 26.1274 33.0408 25.1215 34.3686C25.0847 34.4115 25.1215 34.4666 25.1613 34.4145C26.2017 33.2156 27.571 32.3482 29.0995 31.9198C29.1762 31.8953 29.2957 31.6654 29.1731 31.693Z" fill="#D9D4A2"/>
<path d="M28.9126 34.0222C28.2531 34.0366 27.5985 34.1397 26.9665 34.3287C26.4154 34.5411 25.8884 34.8113 25.3943 35.1347C25.3606 35.1531 25.2931 35.3002 25.3636 35.2726C25.8846 35.0673 26.3382 34.7516 26.896 34.5739C27.5335 34.3905 28.1873 34.2694 28.8483 34.2122C28.8942 34.2122 28.9892 34.0222 28.9126 34.0222Z" fill="#D9D4A2"/>
<path d="M30.0741 35.098C28.7716 35.098 27.3373 35.098 26.1145 35.6128C26.093 35.6128 26.0593 35.6987 26.0961 35.6864C27.322 35.2512 28.7164 35.3248 30.0067 35.2359C30.0527 35.2297 30.1293 35.098 30.0741 35.098Z" fill="#D9D4A2"/>
<path d="M19.3107 33.961C18.6579 33.4553 17.7998 33.3235 17.0091 33.1856C16.0877 32.9915 15.1421 32.9388 14.2048 33.0293C14.1252 33.0293 13.9934 33.2898 14.0976 33.2867C15.6054 33.2224 17.9346 33.207 19.2188 34.0928C19.2647 34.1265 19.3475 33.9947 19.3107 33.961Z" fill="#D9D4A2"/>
<path d="M18.6641 34.3563C17.3125 33.9272 15.3633 33.5932 14.0669 34.3563C14.0332 34.3777 13.9505 34.534 14.0302 34.5065C15.5221 34.0087 17.1353 34.0087 18.6273 34.5065C18.6488 34.4911 18.7346 34.3716 18.6641 34.3563Z" fill="#D9D4A2"/>
<path d="M19.3475 35.2819C17.6814 35.2088 16.0425 35.7229 14.7166 36.7346C14.6462 36.7897 14.6002 36.9951 14.7166 36.9001C16.0583 35.9751 17.6389 35.4578 19.2678 35.4106C19.3475 35.4075 19.4119 35.2849 19.3475 35.2819Z" fill="#D9D4A2"/>
<g style="mix-blend-mode:multiply" opacity="0.5">
<path d="M30.9078 20.2094C30.9078 20.2094 34.6039 17.6871 35.839 19.673C35.6091 17.7484 32.8968 16.878 30.9078 20.2094Z" fill="#D98D4A"/>
</g>
<g style="mix-blend-mode:multiply" opacity="0.5">
<path d="M22.9241 19.9519C22.9241 19.9519 22.2682 17.7852 20.4723 18.867C20.4968 17.6626 23.1294 16.9761 22.9241 19.9519Z" fill="#D98D4A"/>
</g>
<path d="M27.9962 36.9706C27.8718 37.079 27.7177 37.1478 27.5539 37.168C27.39 37.1882 27.2239 37.1589 27.0768 37.084C26.8884 36.9402 26.7102 36.7835 26.5435 36.6151C26.4976 36.5783 26.4056 36.707 26.4363 36.7499C26.6385 37.038 26.7918 37.3445 27.1473 37.4579C27.0965 37.4756 27.0526 37.5088 27.0216 37.5529C26.2064 38.5857 25.0479 38.7205 23.822 38.6286C22.6881 38.5458 21.9832 37.4732 21.4468 36.6089C20.4845 35.0765 20.604 32.4592 20.9197 30.7583C20.9197 30.7123 20.8676 30.7583 20.8615 30.7798C20.1259 33.1519 20.3221 35.9592 21.8606 37.9482C21.7441 38.1413 21.643 38.3405 21.5234 38.5305C21.3968 38.7095 21.2204 38.8474 21.016 38.9269C20.8117 39.0065 20.5885 39.0242 20.3742 38.978C20.2035 38.9522 20.0408 38.8884 19.8982 38.7913C19.7555 38.6943 19.6364 38.5664 19.5497 38.4171C19.2249 37.9268 19.4639 37.4333 19.8164 37.0472C19.847 37.0135 19.8593 36.9093 19.7949 36.9644C19.0318 37.6019 18.897 38.6868 19.8654 39.2354C20.8339 39.784 21.6062 38.9014 22.0107 38.126C23.3347 39.7105 26.1114 39.263 27.2208 37.6693C27.2852 37.5774 27.2852 37.5069 27.2576 37.4732C27.4078 37.4857 27.5589 37.4625 27.6984 37.4055C27.838 37.3485 27.9621 37.2593 28.0606 37.1453C28.1188 37.0656 28.1495 36.8449 27.9962 36.9706Z" fill="#B8B58C"/>
<path d="M18.9307 27.6935C18.9307 27.6935 21.4897 27.3012 23.3838 28.1103C24.7721 28.6988 24.4626 30.5621 21.4683 31.0617C18.1461 31.6164 16.6413 27.9418 18.9307 27.6935Z" fill="#CC839B"/>
<path d="M20.7297 28.2636C20.7297 28.4965 20.2608 28.6742 19.6907 28.665C19.1207 28.6558 18.664 28.4597 18.6702 28.2268C18.6763 27.9939 19.1391 27.8161 19.7061 27.8253C20.273 27.8345 20.7327 28.0306 20.7297 28.2636Z" fill="white"/>
<g style="mix-blend-mode:multiply" opacity="0.5">
<path d="M50.0257 31.9014C49.0389 33.679 46.4737 33.6054 46.4737 33.6054C47.0009 33.8793 47.4877 34.2248 47.9202 34.6321C48.0132 34.6933 48.0968 34.7676 48.1685 34.8528C48.0826 34.7731 47.9999 34.7026 47.9202 34.6321C47.4496 34.3649 46.927 34.2018 46.3878 34.154L46.5871 35.6496C45.9496 35.141 45.2452 34.7223 44.4938 34.4053C45.3397 36.5507 42.2995 39.787 37.4173 41.4298C28.695 44.3229 24.1592 43.5751 19.8716 41.3807C12.6326 36.2963 14.5266 32.6094 12.035 32.3121C10.6007 32.1374 9.54026 32.9864 8.92731 33.7433C8.95305 33.8721 8.99314 33.9975 9.04683 34.1172C9.58929 33.0967 11.5691 31.7758 13.0096 34.2368C15.1549 38.2577 19.6111 44.4394 29.2129 43.9582C38.8148 43.477 46.443 38.4079 45.8791 35.5332C46.5864 35.7576 47.2127 36.1837 47.6812 36.7591C47.6812 36.7591 47.7394 36.1461 47.0682 34.8957C47.761 35.0954 48.4113 35.4205 48.9868 35.855C48.9691 35.4001 48.8059 34.9628 48.5213 34.6075C48.2366 34.2523 47.8455 33.9977 47.4053 33.8813C49.5016 33.4828 49.9644 32.1282 50.0257 31.9014Z" fill="#D98D4A"/>
</g>
<path d="M47.9202 34.6321C47.9999 34.7026 48.0827 34.7731 48.1685 34.8528C48.0968 34.7676 48.0132 34.6933 47.9202 34.6321Z" fill="#D98D4A"/>
<g style="mix-blend-mode:multiply" opacity="0.5">
<g style="mix-blend-mode:multiply" opacity="0.5">
<path d="M26.6355 28.9225C33.3779 33.0262 32.6087 40.6544 26.6079 42.2603C25.5996 42.5326 24.5449 42.5871 23.5139 42.4201C22.4829 42.2532 21.4993 41.8685 20.6285 41.2918C22.9455 42.9867 25.9122 43.5291 29.2099 41.8588C34.6713 39.073 32.3482 31.8769 26.6355 28.9225Z" fill="#DFDBB2"/>
</g>
</g>
</g>
<defs>
<filter id="filter0_d" x="0" y="0" width="60.2842" height="56" filterUnits="userSpaceOnUse" color-interpolation-filters="sRGB">
<feFlood flood-opacity="0" result="BackgroundImageFix"/>
<feColorMatrix in="SourceAlpha" type="matrix" values="0 0 0 0 0 0 0 0 0 0 0 0 0 0 0 0 0 0 127 0"/>
<feOffset dy="4"/>
<feGaussianBlur stdDeviation="4"/>
<feColorMatrix type="matrix" values="0 0 0 0 0 0 0 0 0 0 0 0 0 0 0 0 0 0 0.15 0"/>
<feBlend mode="normal" in2="BackgroundImageFix" result="effect1_dropShadow"/>
<feBlend mode="normal" in="SourceGraphic" in2="effect1_dropShadow" result="shape"/>
</filter>
</defs>
</svg>
