<svg width="40" height="40" viewBox="0 0 40 40" fill="none" xmlns="http://www.w3.org/2000/svg">
<path d="M6.54354e-08 20.0016C-0.000319845 16.0459 1.17239 12.179 3.36982 8.88978C5.56725 5.60058 8.69071 3.03688 12.3452 1.52288C15.9997 0.00888162 20.0211 -0.387415 23.9008 0.384106C27.7805 1.15563 31.3443 3.06032 34.1416 5.8573C36.9388 8.65429 38.8437 12.2179 39.6156 16.0976C40.3874 19.9773 39.9914 23.9987 38.4777 27.6533C36.964 31.3079 34.4006 34.4316 31.1116 36.6293C27.8225 38.827 23.9557 40 20 40C14.6961 39.9996 9.6095 37.8925 5.85891 34.1422C2.10832 30.392 0.000857871 25.3055 6.54354e-08 20.0016Z" fill="url(#paint0_linear)"/>
<path d="M20 39.9992C23.9552 39.9989 27.8216 38.8257 31.1101 36.6281C34.3986 34.4304 36.9616 31.307 38.4749 27.6528C39.9883 23.9985 40.3841 19.9775 39.6123 16.0983C38.8405 12.2191 36.9357 8.65593 34.1388 5.85927C31.3419 3.06261 27.7785 1.15811 23.8993 0.386595C20.02 -0.384915 15.9991 0.0112135 12.345 1.52489C8.69083 3.03857 5.5676 5.60181 3.37022 8.89049C1.17284 12.1792 1.29367e-08 16.0456 0 20.0008C0.000428957 25.3049 2.10775 30.3915 5.85843 34.1419C9.60911 37.8923 14.6959 39.9992 20 39.9992ZM20 0.298447C23.8969 0.297807 27.7065 1.45279 30.9469 3.61732C34.1874 5.78186 36.7132 8.85873 38.2049 12.4588C39.6967 16.0589 40.0873 20.0205 39.3274 23.8426C38.5676 27.6647 36.6914 31.1756 33.9361 33.9314C31.1808 36.6871 27.6701 38.5639 23.8482 39.3244C20.0262 40.0849 16.0645 39.6949 12.4642 38.2038C8.86387 36.7126 5.78659 34.1873 3.62152 30.9472C1.45646 27.7071 0.300849 23.8977 0.300849 20.0008C0.30684 14.7778 2.3841 9.77042 6.07702 6.0769C9.76993 2.38338 14.777 0.305296 20 0.298447Z" fill="url(#paint1_linear)"/>
<path style="mix-blend-mode:screen" opacity="0.7" d="M5.9959 26.5814C8.92351 31.8543 13.2616 35.2316 19.7072 35.2316C29.1645 35.2316 35.2591 27.953 35.2591 18.4924C35.2591 17.4233 38.5264 16.5692 38.7221 16.5417C39.5273 21.0177 38.7278 25.6342 36.4642 29.5787C34.2007 33.5232 30.6183 36.5427 26.3475 38.1059C22.0768 39.6691 17.3916 39.6756 13.1165 38.1244C8.84146 36.5731 5.25062 33.5636 2.97608 29.6254C2.07515 27.9271 5.40552 25.8503 5.9959 26.5814Z" fill="url(#paint2_linear)"/>
<path style="mix-blend-mode:screen" opacity="0.9" d="M9.742 31.4081C5.43145 27.1914 3.32065 22.1141 5.02547 15.8966C7.52769 6.77567 16.1617 2.82581 25.281 5.32641C26.3081 5.60624 28.0016 2.68347 28.0776 2.50231C27.0397 2.00877 25.9605 1.60717 24.8524 1.30215C20.7508 0.178013 16.3928 0.438617 12.4544 2.04355C8.51593 3.64848 5.21708 6.50806 3.06939 10.1788C0.921703 13.8496 0.0451929 18.1264 0.575786 22.3461C1.10638 26.5658 3.01443 30.4925 6.00403 33.5173C7.40476 34.8339 10.2952 32.1715 9.742 31.4081Z" fill="url(#paint3_linear)"/>
<path d="M0.836264 16.5452C-2.30324 37.6677 26.0122 47.2366 36.867 29.7324C26.4376 48.6778 -3.44356 37.7777 0.836264 16.5452Z" fill="white"/>
<g style="mix-blend-mode:color-dodge" opacity="0.4">
<path d="M0.836264 16.5452C-2.30324 37.6677 26.0122 47.2366 36.867 29.7324C26.4376 48.6778 -3.44356 37.7777 0.836264 16.5452Z" fill="white"/>
</g>
<path d="M6.93408 5.63217C16.2944 -2.39532 27.3837 -0.329818 34.7367 7.65077C39.6247 12.9577 41.0999 21.2876 37.2794 29.113C47.7606 10.1983 22.6268 -9.29383 6.93408 5.63217Z" fill="white"/>
<path style="mix-blend-mode:screen" d="M5.00122 20.0015C5.00154 17.0347 5.88161 14.1346 7.53014 11.668C9.17867 9.20135 11.5216 7.27896 14.2627 6.14391C17.0038 5.00886 20.0199 4.71213 22.9296 5.29124C25.8394 5.87034 28.512 7.29928 30.6096 9.39735C32.7073 11.4954 34.1356 14.1684 34.7141 17.0782C35.2926 19.9881 34.9952 23.0042 33.8596 25.745C32.7239 28.4858 30.801 30.8284 28.3341 32.4764C25.8671 34.1244 22.9668 35.0038 20 35.0035C16.0218 35.0026 12.2068 33.4217 9.39407 30.6084C6.58134 27.795 5.00122 23.9797 5.00122 20.0015Z" fill="url(#paint4_linear)"/>
<path d="M20 35.0038C22.9673 35.0044 25.8681 34.1251 28.3356 32.4771C30.8031 30.829 32.7264 28.4863 33.8624 25.745C34.9983 23.0038 35.2959 19.9873 34.7174 17.077C34.1389 14.1667 32.7104 11.4933 30.6124 9.3949C28.5145 7.2965 25.8414 5.86738 22.9312 5.28826C20.021 4.70914 17.0044 5.00604 14.263 6.14141C11.5215 7.27679 9.17833 9.19963 7.52974 11.6668C5.88115 14.1339 5.00122 17.0345 5.00122 20.0018C5.00165 23.9799 6.58191 27.795 9.39454 30.6082C12.2072 33.4214 16.0219 35.0025 20 35.0038ZM20 5.29899C22.908 5.29867 25.7508 6.16071 28.1689 7.77607C30.5869 9.39144 32.4717 11.6876 33.5848 14.3741C34.6978 17.0607 34.9892 20.017 34.4221 22.8692C33.855 25.7213 32.4548 28.3413 30.3986 30.3977C28.3425 32.454 25.7227 33.8545 22.8706 34.4219C20.0185 34.9894 17.0622 34.6983 14.3755 33.5855C11.6888 32.4728 9.39245 30.5883 7.77681 28.1704C6.16118 25.7525 5.29883 22.9098 5.29883 20.0018C5.30312 16.104 6.85331 12.367 9.60934 9.61064C12.3654 6.85431 16.1022 5.3037 20 5.29899Z" fill="url(#paint5_linear)"/>
<path style="mix-blend-mode:multiply" opacity="0.8" d="M9.57703 9.95879C20.778 -1.05455 38.7319 11.6329 33.0303 25.6709C39.7703 11.2673 20.3494 -1.78079 9.57703 9.95879Z" fill="url(#paint6_linear)"/>
<path d="M5.60449 20.0016C5.60449 17.1521 6.44959 14.3666 8.03288 11.9975C9.61617 9.62839 11.8665 7.78205 14.4993 6.69204C17.1321 5.60203 20.0289 5.31733 22.8235 5.87394C25.6181 6.43056 28.1849 7.80348 30.1991 9.81905C32.2133 11.8346 33.5845 14.4023 34.1392 17.1973C34.694 19.9922 34.4073 22.8889 33.3155 25.521C32.2237 28.153 30.3759 30.4021 28.0057 31.9838C25.6355 33.5655 22.8494 34.4087 20 34.4068C16.1813 34.4038 12.52 32.8848 9.82071 30.1837C7.12141 27.4826 5.60492 23.8203 5.60449 20.0016Z" fill="url(#paint7_linear)"/>
<g style="mix-blend-mode:multiply" opacity="0.6">
<path style="mix-blend-mode:multiply" opacity="0.6" d="M31.3449 33.7356C31.241 33.7358 31.1394 33.7042 31.054 33.6451C30.9685 33.5859 30.9031 33.502 30.8667 33.4047C30.8302 33.3073 30.8245 33.2012 30.8501 33.1004C30.8757 32.9997 30.9316 32.9092 31.0101 32.8411C33.9385 30.3084 35.9136 26.8511 36.6081 23.0422C37.3027 19.2333 36.6749 15.3014 34.8289 11.8981C34.7728 11.7803 34.764 11.6455 34.8044 11.5214C34.8448 11.3973 34.9312 11.2934 35.0459 11.2312C35.1607 11.1689 35.2949 11.1531 35.4209 11.1869C35.547 11.2207 35.6552 11.3016 35.7234 11.4129C37.6801 15.0201 38.3459 19.1875 37.6105 23.2248C36.8751 27.2621 34.7826 30.927 31.6797 33.6126C31.5863 33.6922 31.4676 33.7358 31.3449 33.7356Z" fill="url(#paint8_linear)"/>
<path style="mix-blend-mode:multiply" opacity="0.6" d="M8.44639 33.7355C8.32404 33.7349 8.20591 33.6908 8.11319 33.6109C5.01052 30.9252 2.91826 27.2602 2.18288 23.223C1.4475 19.1858 2.11312 15.0185 4.06952 11.4112C4.13387 11.2924 4.24278 11.204 4.37231 11.1654C4.50183 11.1269 4.64135 11.1414 4.76018 11.2058C4.87901 11.2701 4.9674 11.379 5.00593 11.5085C5.04445 11.6381 5.02994 11.7776 4.9656 11.8964C3.11943 15.2995 2.49143 19.2313 3.18567 23.0402C3.8799 26.8491 5.8547 30.3065 8.78282 32.8394C8.86126 32.9074 8.91705 32.9977 8.94272 33.0983C8.9684 33.1989 8.96274 33.3049 8.92651 33.4022C8.89027 33.4995 8.82518 33.5834 8.73996 33.6427C8.65473 33.7019 8.55343 33.7337 8.44962 33.7339L8.44639 33.7355Z" fill="url(#paint9_linear)"/>
</g>
<path style="mix-blend-mode:screen" d="M31.0101 32.841C31.0101 32.841 31.2625 32.5822 31.704 32.1342C31.9111 31.8964 32.1796 31.6311 32.4513 31.2882C32.5888 31.1168 32.7376 30.9405 32.8864 30.7464L33.3458 30.1301C33.5075 29.9134 33.6515 29.6805 33.8132 29.4411C33.9749 29.2017 34.1173 28.9413 34.2758 28.6792C34.4343 28.4172 34.5686 28.1342 34.719 27.8511L35.1411 26.9663C35.2657 26.659 35.4016 26.3485 35.5196 26.0298C35.6377 25.7112 35.7623 25.3828 35.8528 25.0464C35.9434 24.71 36.0566 24.3768 36.1327 24.0323C36.2087 23.6877 36.2944 23.3448 36.3526 22.9955C36.4812 22.3004 36.5676 21.5982 36.6114 20.8928C36.6195 20.5466 36.6422 20.194 36.6405 19.8608C36.6389 19.5276 36.6405 19.1701 36.6163 18.8386C36.592 18.507 36.5629 18.1916 36.537 17.8681C36.5111 17.5446 36.4545 17.2405 36.4157 16.9364C36.3057 16.3363 36.1974 15.7654 36.0518 15.251C35.9887 14.9906 35.9175 14.7448 35.8399 14.5135L35.6345 13.8551C35.4727 13.4475 35.3482 13.0901 35.2301 12.7989L34.829 11.8948L35.3142 12.7569C35.4565 13.0383 35.6167 13.3877 35.7995 13.7872C35.9951 14.2401 36.1674 14.7028 36.3154 15.1734C36.4901 15.6894 36.6276 16.2636 36.7683 16.8717C36.8244 17.1812 36.8821 17.4971 36.9414 17.8196C36.9867 18.1431 37.0142 18.4827 37.053 18.8224C37.0918 19.1621 37.087 19.5033 37.1048 19.8511C37.1225 20.1989 37.1048 20.5628 37.0934 20.9202C37.0542 21.6456 36.9699 22.3679 36.8411 23.0828C36.7764 23.4419 36.7036 23.7993 36.6082 24.1503C36.5128 24.5013 36.4173 24.8507 36.309 25.1904C36.0936 25.8592 35.8354 26.5135 35.5358 27.1491C35.3741 27.4548 35.2382 27.7573 35.0764 28.0436C34.9147 28.3299 34.753 28.6065 34.5799 28.8685C34.4068 29.1305 34.2467 29.3861 34.072 29.6222C33.8973 29.8584 33.7307 30.0848 33.5625 30.2999L33.0627 30.8984C32.901 31.0844 32.7311 31.2494 32.5775 31.4095C32.2782 31.733 31.9822 31.9837 31.7574 32.2037C31.5326 32.4237 31.3255 32.5644 31.1961 32.6712C31.0667 32.7779 31.0101 32.841 31.0101 32.841Z" fill="url(#paint10_linear)"/>
<path style="mix-blend-mode:screen" d="M8.11327 33.611L7.90138 33.4363C7.76551 33.3199 7.55847 33.1598 7.30938 32.9366C7.06029 32.7133 6.75783 32.4384 6.44242 32.0939C6.28067 31.9224 6.1076 31.7477 5.93292 31.552C5.75823 31.3563 5.5884 31.1395 5.40401 30.9163C5.21962 30.6931 5.0514 30.4457 4.86539 30.1949C4.67938 29.9442 4.51278 29.6725 4.32677 29.3975C4.14076 29.1226 3.98225 28.8217 3.80433 28.5241C3.62641 28.2265 3.48084 27.8998 3.31909 27.5779C3.0038 26.9029 2.72994 26.2093 2.49903 25.5011C2.38581 25.1387 2.26774 24.7716 2.18363 24.3963C2.09952 24.0211 2.00409 23.6474 1.93616 23.2641C1.80118 22.5073 1.71206 21.743 1.66927 20.9754C1.66927 20.5937 1.64339 20.2233 1.65633 19.8431C1.66927 19.463 1.68059 19.1153 1.70971 18.753C1.73882 18.3907 1.78088 18.0364 1.82778 17.6887C1.87469 17.3409 1.95071 17.0126 2.00894 16.6875C2.15775 16.0405 2.30332 15.4339 2.49418 14.8872C2.65593 14.3308 2.87429 13.852 3.03927 13.4153C3.23822 12.9932 3.40805 12.6228 3.55686 12.3252C3.88035 11.7429 4.07283 11.4097 4.07283 11.4097C4.07283 11.4097 3.91108 11.759 3.64744 12.3672C3.51966 12.6729 3.38055 13.053 3.21557 13.4833C3.14764 13.7049 3.07323 13.9394 2.9956 14.1869C2.91796 14.4343 2.83385 14.6931 2.76915 14.9697C2.6074 15.5132 2.49903 16.1181 2.38258 16.7489C2.3389 17.0724 2.29362 17.3959 2.24994 17.7356C2.20627 18.0753 2.19495 18.4182 2.16422 18.7659C2.13349 19.1137 2.14804 19.4857 2.13672 19.8512C2.1254 20.2168 2.16098 20.5775 2.16745 20.9463C2.21467 21.6918 2.30595 22.4339 2.4408 23.1687C2.50874 23.5374 2.57991 23.9078 2.67534 24.2702C2.77077 24.6325 2.8662 24.9915 2.97295 25.3458C3.0797 25.7 3.21395 26.0413 3.32718 26.3874C3.4404 26.7336 3.59891 27.0571 3.72993 27.3822L4.17635 28.3219C4.33809 28.6179 4.48528 28.9188 4.64865 29.1986C4.81201 29.4784 4.97214 29.7518 5.14198 30.0073C5.31181 30.2629 5.46547 30.5087 5.63854 30.7384C5.81161 30.9681 5.96203 31.1848 6.12378 31.3854C6.28553 31.586 6.44727 31.7768 6.58638 31.958C6.87267 32.3203 7.16058 32.605 7.37894 32.8541L8.11327 33.611Z" fill="url(#paint11_linear)"/>
<path d="M12.6228 25.5591H19.2075V21.6092H17.3862C13.7372 21.6092 11.9127 19.9227 11.9127 16.5498C11.9127 14.1225 12.8034 12.5341 14.5848 11.7847C15.4841 11.4062 16.6271 11.217 18.0138 11.217H19.2075V9.64966H20.5791V11.2218H27.07V14.3403H20.5791V18.5457H22.5427C25.1307 18.5457 26.7859 19.2154 27.5083 20.5546C27.8944 21.2642 28.0874 22.219 28.0874 23.4192C28.0874 25.8065 27.1967 27.3593 25.4153 28.0775C24.4999 28.4484 23.3676 28.6333 22.0187 28.6323H20.5872V30.3533H19.2075V28.6323H12.6228V25.5591ZM19.2075 18.536V14.3403H18.3826C16.529 14.3403 15.6027 15.0693 15.6038 16.5271C15.6038 17.8664 16.3586 18.5366 17.8682 18.5376L19.2075 18.536ZM20.5791 21.6092V25.5591H21.5965C23.4728 25.5591 24.4109 24.8533 24.4109 23.4418C24.4109 22.6848 24.157 22.1737 23.6539 21.9052C23.2841 21.7079 22.6807 21.6092 21.844 21.6092H20.5791Z" fill="url(#paint12_linear)" stroke="#715120" stroke-miterlimit="10"/>
<defs>
<linearGradient id="paint0_linear" x1="52.2685" y1="47.8027" x2="-36.0517" y2="-28.2879" gradientUnits="userSpaceOnUse">
<stop stop-color="#F4D77E"/>
<stop offset="0.08" stop-color="white"/>
<stop offset="0.19" stop-color="#F2DB87"/>
<stop offset="0.26" stop-color="#D9B756"/>
<stop offset="0.32" stop-color="#C49A42"/>
<stop offset="0.36" stop-color="#B88937"/>
<stop offset="0.38" stop-color="#B78736"/>
<stop offset="0.47" stop-color="#B38334"/>
<stop offset="0.51" stop-color="#BD903E"/>
<stop offset="0.56" stop-color="#CAA24C"/>
<stop offset="0.68" stop-color="#F3DB78"/>
<stop offset="0.7" stop-color="#F0D876"/>
<stop offset="0.72" stop-color="#E8CE6E"/>
<stop offset="0.74" stop-color="#DBBD62"/>
<stop offset="0.76" stop-color="#C7A451"/>
<stop offset="0.77" stop-color="#AE863A"/>
<stop offset="0.79" stop-color="#996B27"/>
<stop offset="0.81" stop-color="#9F732D"/>
<stop offset="0.84" stop-color="#B1893E"/>
<stop offset="0.89" stop-color="#CDAC59"/>
<stop offset="0.94" stop-color="#F6E080"/>
</linearGradient>
<linearGradient id="paint1_linear" x1="-6.01051" y1="-13.1605" x2="36.6211" y2="41.1913" gradientUnits="userSpaceOnUse">
<stop stop-color="#D9B756"/>
<stop offset="0.08" stop-color="#C49A42"/>
<stop offset="0.14" stop-color="#B88937"/>
<stop offset="0.15" stop-color="#B78736"/>
<stop offset="0.22" stop-color="#B38334"/>
<stop offset="0.31" stop-color="#BD903E"/>
<stop offset="0.39" stop-color="#CAA24C"/>
<stop offset="0.66" stop-color="#996B27"/>
<stop offset="0.88" stop-color="#996B27"/>
<stop offset="1" stop-color="#492208"/>
</linearGradient>
<linearGradient id="paint2_linear" x1="27.1766" y1="38.4455" x2="20.4771" y2="22.1964" gradientUnits="userSpaceOnUse">
<stop offset="0.02" stop-color="white"/>
<stop offset="0.29" stop-color="#F6E080"/>
<stop offset="0.56" stop-color="#F3DB78"/>
<stop offset="0.59" stop-color="#C1AE61"/>
<stop offset="0.63" stop-color="#8B7E47"/>
<stop offset="0.66" stop-color="#5E5533"/>
<stop offset="0.7" stop-color="#3B3622"/>
<stop offset="0.73" stop-color="#211F17"/>
<stop offset="0.76" stop-color="#12120F"/>
<stop offset="0.79" stop-color="#0D0D0D"/>
</linearGradient>
<linearGradient id="paint3_linear" x1="-0.881528" y1="6.45055" x2="18.9341" y2="19.2447" gradientUnits="userSpaceOnUse">
<stop offset="0.02" stop-color="white"/>
<stop offset="0.29" stop-color="#F6E080"/>
<stop offset="0.59" stop-color="#F3DB78"/>
<stop offset="0.64" stop-color="#C1AE61"/>
<stop offset="0.71" stop-color="#8B7E47"/>
<stop offset="0.78" stop-color="#5E5533"/>
<stop offset="0.84" stop-color="#3B3622"/>
<stop offset="0.9" stop-color="#211F17"/>
<stop offset="0.96" stop-color="#12120F"/>
<stop offset="1" stop-color="#0D0D0D"/>
</linearGradient>
<linearGradient id="paint4_linear" x1="36.3219" y1="40.4317" x2="9.99435" y2="7.47904" gradientUnits="userSpaceOnUse">
<stop stop-color="#F4D77E"/>
<stop offset="0.06" stop-color="white"/>
<stop offset="0.19" stop-color="#F2DB87"/>
<stop offset="0.37" stop-color="white"/>
<stop offset="0.49" stop-color="#F6E080"/>
<stop offset="0.65" stop-color="#F3DB78"/>
<stop offset="0.75" stop-color="#CDAC56"/>
<stop offset="0.87" stop-color="#A87D34"/>
<stop offset="0.92" stop-color="#996B27"/>
</linearGradient>
<linearGradient id="paint5_linear" x1="5097.59" y1="8768.28" x2="4068.15" y2="1353.38" gradientUnits="userSpaceOnUse">
<stop stop-color="#D9B756"/>
<stop offset="0.08" stop-color="#C49A42"/>
<stop offset="0.14" stop-color="#B88937"/>
<stop offset="0.15" stop-color="#B78736"/>
<stop offset="0.22" stop-color="#B38334"/>
<stop offset="0.31" stop-color="#BD903E"/>
<stop offset="0.39" stop-color="#CAA24C"/>
<stop offset="0.66" stop-color="#996B27"/>
<stop offset="0.88" stop-color="#996B27"/>
<stop offset="1" stop-color="#492208"/>
</linearGradient>
<linearGradient id="paint6_linear" x1="21.8829" y1="17.3591" x2="29.5616" y2="8.23787" gradientUnits="userSpaceOnUse">
<stop stop-color="white"/>
<stop offset="0.06" stop-color="#F1E7D0"/>
<stop offset="0.16" stop-color="#DCC289"/>
<stop offset="0.23" stop-color="#CFAB5D"/>
<stop offset="0.26" stop-color="#CAA24C"/>
<stop offset="0.66" stop-color="#996B27"/>
<stop offset="0.73" stop-color="#916424"/>
<stop offset="0.83" stop-color="#7B501B"/>
<stop offset="0.95" stop-color="#582F0E"/>
<stop offset="1" stop-color="#492208"/>
</linearGradient>
<linearGradient id="paint7_linear" x1="1.20336" y1="-1.24707" x2="32.4561" y2="34.0817" gradientUnits="userSpaceOnUse">
<stop stop-color="#F4D77E"/>
<stop offset="0.34" stop-color="#D9B756"/>
<stop offset="0.49" stop-color="#BF943F"/>
<stop offset="0.58" stop-color="#B38334"/>
<stop offset="0.68" stop-color="#C8A04B"/>
<stop offset="0.86" stop-color="#F3DB78"/>
<stop offset="0.89" stop-color="#EED574"/>
<stop offset="0.91" stop-color="#E1C467"/>
<stop offset="0.95" stop-color="#CAA853"/>
<stop offset="0.98" stop-color="#AB8237"/>
<stop offset="1" stop-color="#996B27"/>
</linearGradient>
<linearGradient id="paint8_linear" x1="40.8944" y1="33.2956" x2="15.5034" y2="-3.05051" gradientUnits="userSpaceOnUse">
<stop stop-color="#F4D77E"/>
<stop offset="0.28" stop-color="#996B27"/>
<stop offset="0.38" stop-color="#9F732D"/>
<stop offset="0.53" stop-color="#B1893E"/>
<stop offset="0.72" stop-color="#CDAC59"/>
<stop offset="0.93" stop-color="#F4DE7E"/>
<stop offset="0.94" stop-color="#F6E080"/>
</linearGradient>
<linearGradient id="paint9_linear" x1="1177.52" y1="7037.23" x2="-1640.25" y2="5775.37" gradientUnits="userSpaceOnUse">
<stop stop-color="#F4D77E"/>
<stop offset="0.28" stop-color="#996B27"/>
<stop offset="0.38" stop-color="#9F732D"/>
<stop offset="0.53" stop-color="#B1893E"/>
<stop offset="0.72" stop-color="#CDAC59"/>
<stop offset="0.93" stop-color="#F4DE7E"/>
<stop offset="0.94" stop-color="#F6E080"/>
</linearGradient>
<linearGradient id="paint10_linear" x1="34.0655" y1="22.2708" x2="34.0655" y2="27.623" gradientUnits="userSpaceOnUse">
<stop offset="0.08" stop-color="white"/>
<stop offset="0.36" stop-color="#AE853B"/>
</linearGradient>
<linearGradient id="paint11_linear" x1="366.868" y1="3653.1" x2="366.868" y2="4387.74" gradientUnits="userSpaceOnUse">
<stop offset="0.08" stop-color="white"/>
<stop offset="0.36" stop-color="#AE853B"/>
</linearGradient>
<linearGradient id="paint12_linear" x1="1629.38" y1="3115.19" x2="3246.85" y2="3115.19" gradientUnits="userSpaceOnUse">
<stop stop-color="#D9B756"/>
<stop offset="0.08" stop-color="#C49A42"/>
<stop offset="0.14" stop-color="#B88937"/>
<stop offset="0.15" stop-color="#B78736"/>
<stop offset="0.22" stop-color="#B38334"/>
<stop offset="0.31" stop-color="#BD903E"/>
<stop offset="0.39" stop-color="#CAA24C"/>
<stop offset="0.66" stop-color="#996B27"/>
<stop offset="0.88" stop-color="#996B27"/>
<stop offset="1" stop-color="#492208"/>
</linearGradient>
</defs>
</svg>
