<svg width="90" height="71" viewBox="0 0 90 71" fill="none" xmlns="http://www.w3.org/2000/svg">
<g filter="url(#filter0_d)">
<rect x="8" y="4" width="73.3333" height="55" rx="27.5" fill="url(#paint0_linear)"/>
<rect x="11.6667" y="7.66663" width="66" height="47.6667" rx="23.8333" fill="#785A5A"/>
</g>
<path fill-rule="evenodd" clip-rule="evenodd" d="M51.0219 11.801C51.1319 11.2598 51.6598 10.9102 52.201 11.0202C53.727 11.3304 55.8788 12.2888 57.488 14.184C59.1314 16.1193 60.142 18.9553 59.4463 22.8442C59.349 23.3878 58.8294 23.7497 58.2858 23.6524C57.7421 23.5552 57.3803 23.0356 57.4775 22.4919C58.0738 19.1595 57.2003 16.9351 55.9635 15.4785C54.6927 13.9819 52.9684 13.2171 51.8027 12.9802C51.2615 12.8702 50.9119 12.3422 51.0219 11.801ZM50.8087 15.0106C50.2619 14.933 49.7557 15.3134 49.6781 15.8602C49.6005 16.407 49.9809 16.9132 50.5277 16.9908C51.1687 17.0817 51.9387 17.3497 52.5327 17.9526C53.1042 18.5327 53.6215 19.5326 53.5836 21.3133C53.5718 21.8654 54.0098 22.3226 54.562 22.3344C55.1142 22.3462 55.5713 21.9081 55.5831 21.3559C55.6305 19.1362 54.9733 17.5802 53.9574 16.549C52.964 15.5406 51.7338 15.1419 50.8087 15.0106ZM50.0021 36.0565L50.0021 20.6676H40.6673L40.6673 36.0565H50.0021ZM40.6673 38.0565V40.6703H50.0021V38.0565H40.6673ZM39.86 46.3274C40.4068 46.405 40.913 46.0247 40.9906 45.4779C41.0682 44.9311 40.6878 44.4249 40.141 44.3473C39.5 44.2563 38.73 43.9883 38.1361 43.3854C37.5645 42.8053 37.0472 41.8054 37.0852 40.0247C37.0969 39.4726 36.6589 39.0154 36.1067 39.0036C35.5546 38.9919 35.0974 39.4299 35.0856 39.9821C35.0383 42.2019 35.6954 43.7578 36.7113 44.789C37.7047 45.7974 38.9349 46.1961 39.86 46.3274ZM39.6472 49.5369C39.5372 50.0781 39.0093 50.4277 38.4681 50.3177C36.9421 50.0075 34.7904 49.0491 33.1811 47.1539C31.5378 45.2186 30.5271 42.3826 31.2229 38.4937C31.3201 37.9501 31.8397 37.5882 32.3834 37.6855C32.927 37.7827 33.2889 38.3023 33.1916 38.846C32.5954 42.1784 33.4689 44.4028 34.7056 45.8594C35.9765 47.356 37.7007 48.1208 38.8665 48.3577C39.4077 48.4678 39.7572 48.9957 39.6472 49.5369ZM38.6673 20.6676C38.6673 19.563 39.5627 18.6676 40.6673 18.6676H50.0021C51.1067 18.6676 52.0021 19.563 52.0021 20.6676V40.6703C52.0021 41.7749 51.1067 42.6703 50.0021 42.6703H40.6673C39.5627 42.6703 38.6673 41.7749 38.6673 40.6703V20.6676Z" fill="white" fill-opacity="0.5"/>
<defs>
<filter id="filter0_d" x="0" y="0" width="89.3333" height="71" filterUnits="userSpaceOnUse" color-interpolation-filters="sRGB">
<feFlood flood-opacity="0" result="BackgroundImageFix"/>
<feColorMatrix in="SourceAlpha" type="matrix" values="0 0 0 0 0 0 0 0 0 0 0 0 0 0 0 0 0 0 127 0"/>
<feOffset dy="4"/>
<feGaussianBlur stdDeviation="4"/>
<feColorMatrix type="matrix" values="0 0 0 0 0 0 0 0 0 0 0 0 0 0 0 0 0 0 0.15 0"/>
<feBlend mode="normal" in2="BackgroundImageFix" result="effect1_dropShadow"/>
<feBlend mode="normal" in="SourceGraphic" in2="effect1_dropShadow" result="shape"/>
</filter>
<linearGradient id="paint0_linear" x1="24.3289" y1="-24.6059" x2="96.2321" y2="1.45817" gradientUnits="userSpaceOnUse">
<stop stop-color="#B9892D"/>
<stop offset="0.23" stop-color="#F9C306"/>
<stop offset="0.34" stop-color="#D0BA45"/>
<stop offset="0.49" stop-color="#C99F0A"/>
<stop offset="0.58" stop-color="#9C7B03"/>
<stop offset="0.73" stop-color="#FFD338"/>
<stop offset="0.8" stop-color="#FFD465"/>
<stop offset="0.83" stop-color="#DCC818"/>
<stop offset="0.89" stop-color="#C79B00"/>
<stop offset="0.96" stop-color="#D89B00"/>
<stop offset="1" stop-color="#967500"/>
</linearGradient>
</defs>
</svg>
