<svg width="36" height="40" viewBox="0 0 36 40" fill="none" xmlns="http://www.w3.org/2000/svg">
<path d="M24.0254 21.5375L23.9465 20.7848C30.36 20.3618 32.9812 6.801 33.39 4.43539C32.8802 4.05664 31.7834 3.24706 30.8018 2.57162C30.5349 3.3022 30.0207 3.91634 29.3484 4.30756C27.8397 5.16764 26.0075 4.55691 25.9302 4.53008L26.3152 3.40172C26.3279 3.40172 28.7029 3.88936 29.7398 3.29441C30.3 2.97878 30.7861 1.11975 30.7861 1.11975C32.2269 2.06663 34.3084 3.62739 34.3952 3.69367L34.6793 3.90672L34.6272 4.25706C34.5215 4.96406 31.9649 21.0152 24.0254 21.5375Z" fill="url(#paint0_radial)"/>
<path d="M24.6708 21.5501L24.5919 20.3618C31.0054 19.9389 33.6267 6.37804 34.0354 4.01243C33.5257 3.63368 32.4289 2.8241 31.4473 2.14866C31.1805 2.87886 30.6669 3.49289 29.9954 3.8846C28.4851 4.74468 26.6529 4.13237 26.5756 4.10554L26.9607 2.97718C26.9749 2.97718 28.381 3.43957 29.4099 2.84462C29.9702 2.52899 30.3442 1.92773 30.5225 1.07396L30.7008 0.217041L31.4331 0.690478C32.8739 1.63735 34.9539 3.19812 35.0423 3.2644L35.3263 3.47744L35.2727 3.82779C35.1685 4.54426 32.6104 21.0293 24.6708 21.5501Z" fill="url(#paint1_radial)"/>
<path d="M24.6708 21.5501L24.5919 20.3618C31.0054 19.9389 33.6267 6.37804 34.0354 4.01243C33.5257 3.63368 32.4289 2.8241 31.4473 2.14866C31.1805 2.87886 30.6669 3.49289 29.9954 3.8846C28.4851 4.74468 26.6529 4.13237 26.5756 4.10554L26.9607 2.97718C26.9749 2.97718 28.381 3.43957 29.4099 2.84462C29.9702 2.52899 30.3442 1.92773 30.5225 1.07396L30.7008 0.217041L31.4331 0.690478C32.8739 1.63735 34.9539 3.19812 35.0423 3.2644L35.3263 3.47744L35.2727 3.82779C35.1685 4.54426 32.6104 21.0293 24.6708 21.5501Z" fill="url(#paint2_radial)"/>
<path d="M29.4099 2.84938C29.9702 2.53375 30.3442 1.93249 30.5225 1.07872L30.7008 0.221802L30.0554 0.644739L29.877 1.50166C29.786 2.05044 29.5364 2.5606 29.159 2.96932C29.2453 2.93513 29.3291 2.89506 29.4099 2.84938Z" fill="url(#paint3_radial)"/>
<path d="M26.6893 19.7116C31.5815 16.9183 33.6756 6.1003 34.0354 4.01245C33.5257 3.6337 32.4289 2.82412 31.4473 2.14868C31.3577 2.37336 31.2479 2.5894 31.1191 2.79413C32.0091 3.42538 32.9323 4.09766 33.3868 4.43538C33.046 6.43802 31.127 16.3802 26.6893 19.7116Z" fill="url(#paint4_radial)"/>
<path d="M24.614 20.6901C24.3939 20.7369 24.1709 20.7686 23.9465 20.7848L24.0254 21.5375C24.2397 21.5225 24.453 21.4962 24.6645 21.4586L24.614 20.6901Z" fill="url(#paint5_radial)"/>
<path style="mix-blend-mode:multiply" d="M28.6303 4.31545V3.1145C28.0707 3.19032 27.5013 3.14511 26.9606 2.98193L26.5756 4.11029C27.2398 4.31564 27.9385 4.38541 28.6303 4.31545Z" fill="url(#paint6_linear)"/>
<path style="mix-blend-mode:multiply" opacity="0.4" d="M28.6303 18.0593C27.4957 19.3723 26.1574 20.2577 24.5919 20.3618L24.6708 21.5501C26.1779 21.4523 27.4909 20.7753 28.6303 19.7432V18.0593Z" fill="url(#paint7_linear)"/>
<path style="mix-blend-mode:screen" d="M32.945 12.67C34.0055 9.80663 34.7851 6.84687 35.2727 3.83254L35.3264 3.4822L35.0423 3.26915C34.9539 3.20287 32.8739 1.63895 31.4331 0.695232L31.3605 0.647888L28.6304 4.30914C29.1096 4.26115 29.574 4.11618 29.9954 3.88304C30.667 3.49133 31.1805 2.8773 31.4473 2.14711C32.4289 2.82254 33.5257 3.63212 34.0354 4.01087C33.7893 5.43118 32.7414 10.9136 30.5478 15.143L32.945 12.67Z" fill="url(#paint8_radial)"/>
<path d="M11.301 21.5375L11.3799 20.7848C4.96642 20.3618 2.34516 6.801 1.93642 4.43539C2.44616 4.05664 3.54295 3.24706 4.52454 2.57162C4.79152 3.3022 5.30571 3.91634 5.978 4.30756C7.48668 5.16764 9.31889 4.55691 9.39622 4.53008L9.01115 3.40172C8.99695 3.40172 6.62345 3.88936 5.58662 3.29441C5.02481 2.97878 4.53875 1.11975 4.53875 1.11975C3.09792 2.06663 1.01795 3.62739 0.931156 3.69367L0.647095 3.90672L0.699172 4.25706C0.803328 4.96406 3.36147 21.0152 11.301 21.5375Z" fill="url(#paint9_radial)"/>
<path d="M10.6555 21.5501L10.7328 20.3618C4.32091 19.9389 1.69806 6.37804 1.29091 4.01243C1.79906 3.63368 2.89744 2.8241 3.87903 2.14866C4.14584 2.87886 4.65939 3.49289 5.3309 3.8846C6.84117 4.74468 8.67179 4.13237 8.74912 4.10554L8.36564 2.97718C8.35143 2.97718 6.95322 3.43957 5.91639 2.84462C5.35615 2.52899 4.98056 1.92773 4.80381 1.07396L4.62548 0.217041L3.89323 0.690478C2.4524 1.63735 0.372438 3.19812 0.284063 3.2644L0 3.47744L0.0536568 3.82779C0.157813 4.54426 2.7128 21.0293 10.6555 21.5501Z" fill="url(#paint10_radial)"/>
<path d="M10.6555 21.5501L10.7328 20.3618C4.32091 19.9389 1.69806 6.37804 1.29091 4.01243C1.79906 3.63368 2.89744 2.8241 3.87903 2.14866C4.14584 2.87886 4.65939 3.49289 5.3309 3.8846C6.84117 4.74468 8.67179 4.13237 8.74912 4.10554L8.36564 2.97718C8.35143 2.97718 6.95322 3.43957 5.91639 2.84462C5.35615 2.52899 4.98056 1.92773 4.80381 1.07396L4.62548 0.217041L3.89323 0.690478C2.4524 1.63735 0.372438 3.19812 0.284063 3.2644L0 3.47744L0.0536568 3.82779C0.157813 4.54426 2.7128 21.0293 10.6555 21.5501Z" fill="url(#paint11_radial)"/>
<path d="M5.9164 2.84938C5.35616 2.53375 4.98057 1.93249 4.80382 1.07872L4.62549 0.221802L5.27094 0.644739L5.44927 1.50166C5.53981 2.0503 5.78886 2.56046 6.16574 2.96932C6.07996 2.93513 5.99665 2.89505 5.9164 2.84938Z" fill="url(#paint12_radial)"/>
<path d="M8.63706 19.7116C3.74488 16.9183 1.65071 6.1003 1.29089 4.01245C1.79905 3.6337 2.89742 2.82412 3.87902 2.14868C3.96759 2.37324 4.0764 2.58928 4.20411 2.79413C3.31405 3.42538 2.39085 4.09766 1.93635 4.43538C2.28038 6.43802 4.19937 16.3802 8.63706 19.7116Z" fill="url(#paint13_radial)"/>
<path d="M10.7123 20.6901C10.9324 20.7369 11.1555 20.7686 11.3799 20.7848L11.301 21.5375C11.0893 21.5223 10.8786 21.496 10.6697 21.4586L10.7123 20.6901Z" fill="url(#paint14_radial)"/>
<path style="mix-blend-mode:multiply" d="M6.69446 4.31545V3.1145C7.25461 3.19025 7.82449 3.14505 8.36569 2.98193L8.74918 4.11029C8.085 4.31598 7.38619 4.38576 6.69446 4.31545Z" fill="url(#paint15_linear)"/>
<path style="mix-blend-mode:multiply" opacity="0.5" d="M6.69446 18.0593C7.83071 19.3723 9.16896 20.2577 10.7329 20.3618L10.6556 21.5501C9.14844 21.4523 7.83544 20.7753 6.69446 19.7432V18.0593Z" fill="url(#paint16_linear)"/>
<path style="mix-blend-mode:screen" d="M1.29249 4.01243C1.80065 3.63368 2.89902 2.8241 3.88062 2.14866C4.14742 2.87886 4.66097 3.49289 5.33249 3.8846C5.40824 3.92721 5.4903 3.96351 5.56132 3.9998L6.2336 2.98981C6.12484 2.94955 6.01932 2.90101 5.91797 2.84462C5.35774 2.52899 4.98215 1.92773 4.8054 1.07396L4.62707 0.217041L3.89482 0.690478C2.45399 1.63735 0.374025 3.19812 0.28565 3.2644L0.00158691 3.47744L0.0552438 3.82779C0.398189 5.94481 0.883242 8.03634 1.50712 10.0882L2.37824 8.77836C1.76593 6.59582 1.41874 4.75415 1.29249 4.01243Z" fill="url(#paint17_radial)"/>
<path d="M10.6476 37.9879V39.5029C10.6476 39.7775 13.7155 40 17.4998 40C21.2841 40 24.3504 39.7775 24.3504 39.5029V37.9879H10.6476Z" fill="url(#paint18_radial)"/>
<path d="M24.3504 37.9879C24.3504 38.2625 21.2826 38.485 17.4998 38.485C13.717 38.485 10.6476 38.2625 10.6476 37.9879C10.6476 37.7133 13.7155 37.4892 17.4998 37.4892C21.2841 37.4892 24.3504 37.7133 24.3504 37.9879Z" fill="url(#paint19_radial)"/>
<path style="mix-blend-mode:screen" d="M24.2984 38.0463C23.8896 38.294 21.0032 38.485 17.4998 38.485C13.9964 38.485 11.1084 38.294 10.6997 38.0463C10.6665 38.0731 10.6476 38.0983 10.6476 38.1236C10.6476 38.4739 13.7155 38.7548 17.4998 38.7548C21.2841 38.7548 24.3504 38.4708 24.3504 38.1236C24.3504 38.0983 24.3331 38.0731 24.2984 38.0463Z" fill="url(#paint20_radial)"/>
<path style="mix-blend-mode:multiply" opacity="0.8" d="M15.2715 37.8522C13.6555 37.8522 12.1405 37.8601 10.8259 37.8743C10.7107 37.9106 10.6476 37.9484 10.6476 37.9879C10.6476 38.0621 10.8733 38.1315 11.2788 38.1946C12.4845 38.2073 14.1321 38.1946 15.5666 38.1946C15.6534 38.193 15.3567 37.8522 15.2715 37.8522Z" fill="url(#paint21_linear)"/>
<path d="M20.8612 38.0131C20.8612 37.224 19.7376 37.0142 19.7376 37.0142L17.4446 37.1909L15.1516 37.0142C15.1516 37.0142 14.0264 37.2177 14.0264 38.0131C14.252 38.2356 17.1337 38.2151 17.4446 38.212C17.7555 38.2088 20.6387 38.2356 20.8612 38.0131Z" fill="url(#paint22_radial)"/>
<path style="mix-blend-mode:screen" d="M17.4493 37.9137H17.0058C15.4798 37.9137 14.7018 37.8585 14.3735 37.808C14.5313 37.4845 15.0379 37.3456 15.1721 37.314L17.4461 37.4876L19.7186 37.314C19.8544 37.3456 20.3625 37.4813 20.5188 37.808C20.1905 37.8585 19.4141 37.9137 17.8864 37.9137H17.4493Z" fill="url(#paint23_radial)"/>
<path d="M19.7771 37.0142C19.7771 37.2572 15.1437 37.2477 15.1469 37.0142V36.3829H19.7771V37.0142Z" fill="url(#paint24_radial)"/>
<path d="M27.128 1.04716C27.057 0.163407 18.9486 -0.0243886 17.5014 0.0024395C16.0464 -0.0243886 7.93798 0.160251 7.87486 1.04716C5.58815 22.3645 13.1789 24.7032 13.1789 24.7032C16.0753 24.8169 18.9622 24.8169 21.8397 24.7032C21.8397 24.7032 29.4131 22.3645 27.128 1.04716Z" fill="url(#paint25_radial)"/>
<path style="mix-blend-mode:multiply" opacity="0.4" d="M8.56445 15.2755C9.80959 22.3487 12.838 23.9205 13.283 24.113C14.6671 24.1667 16.0747 24.1935 17.4698 24.1935C18.8664 24.1935 20.2915 24.1651 21.7055 24.113C22.2168 23.9015 25.8812 22.0615 26.7681 12.8215C21.7071 24.113 10.6839 16.6169 8.56445 15.2755Z" fill="url(#paint26_linear)"/>
<path d="M7.85904 1.44327C7.93005 0.559517 16.0385 0.373298 17.4856 0.400126C18.9406 0.373298 27.049 0.557939 27.1122 1.44327C27.3946 4.0882 27.4136 3.86095 27.1122 1.04716C27.0411 0.163407 18.9327 -0.0243886 17.4856 0.0024395C16.0306 -0.0243886 7.92216 0.160251 7.85904 1.04716C7.55762 3.86095 7.57655 4.0882 7.85904 1.44327Z" fill="url(#paint27_linear)"/>
<path style="mix-blend-mode:multiply" opacity="0.3" d="M8.15257 4.62158C7.141 20.9567 12.6692 23.8431 13.2862 24.113C14.6702 24.1667 13.6571 24.1935 15.0521 24.1935H17.4746C18.5587 24.1935 17.2378 24.1714 18.3362 24.1398C14.776 23.2592 9.30618 19.5364 8.15257 4.62158Z" fill="url(#paint28_linear)"/>
<path opacity="0.7" d="M20.5172 0.644714C22.9128 0.756761 25.3115 0.977699 25.9554 1.2665C27.9801 20.5385 21.7591 23.7974 21.1042 24.0735C20.0958 24.113 19.0732 24.1335 18.0537 24.143C24.6976 23.0083 23.1084 5.42327 20.5172 0.644714Z" fill="url(#paint29_linear)"/>
<path style="mix-blend-mode:screen" opacity="0.7" d="M9.13889 1.20026C8.8984 1.23827 8.66251 1.30121 8.43505 1.38805C6.43241 20.466 12.5066 23.8432 13.2641 24.1856C11.4903 22.5539 7.90164 17.2166 9.13889 1.20026Z" fill="url(#paint30_linear)"/>
<path d="M20.7413 26.698C19.6503 26.778 18.5587 26.8179 17.4667 26.8179C16.3746 26.8179 15.2831 26.778 14.1921 26.698V25.9089H20.7413V26.698Z" fill="url(#paint31_radial)"/>
<path style="mix-blend-mode:screen" d="M17.4667 26.5197C16.4819 26.5197 15.4814 26.4865 14.4904 26.4202V26.2135H20.443V26.4202C19.4583 26.4865 18.4593 26.5197 17.473 26.5197H17.4667Z" fill="url(#paint32_radial)"/>
<path d="M17.4936 24.7869L13.1632 24.7032C13.1632 24.7032 13.2137 25.9152 14.1921 25.9152C15.1911 26.0226 19.8339 26.0147 20.795 25.9152C21.7735 25.9152 21.824 24.7032 21.824 24.7032L17.4936 24.7869Z" fill="url(#paint33_radial)"/>
<path style="mix-blend-mode:screen" d="M17.4178 25.6911C15.8807 25.6911 14.6576 25.6627 14.2236 25.617H14.1921C13.766 25.617 13.5877 25.2761 13.5135 25.0062L17.4872 25.0836L21.4735 25.0062C21.3994 25.2761 21.221 25.617 20.795 25.617H20.7634C20.3231 25.6643 18.977 25.6911 17.4178 25.6911Z" fill="url(#paint34_radial)"/>
<path d="M19.7771 36.3814C19.7771 36.4634 18.7402 36.5313 17.462 36.5313C16.1837 36.5313 15.1469 36.4634 15.1469 36.3814C15.1469 36.2993 16.1837 36.2314 17.462 36.2314C18.7402 36.2314 19.7771 36.2993 19.7771 36.3814Z" fill="url(#paint35_radial)"/>
<path style="mix-blend-mode:screen" d="M19.7566 36.4019C19.5987 36.4744 18.6377 36.5313 17.4635 36.5313C16.2894 36.5313 15.322 36.4744 15.1705 36.4019C15.1579 36.4097 15.1484 36.4176 15.1484 36.4271C15.1484 36.5344 16.1853 36.6228 17.4635 36.6228C18.7418 36.6228 19.7787 36.5344 19.7787 36.4271C19.7771 36.4224 19.7676 36.4097 19.7566 36.4019Z" fill="url(#paint36_radial)"/>
<path d="M20.2995 26.728H14.6261V36.5723H20.2995V26.728Z" fill="url(#paint37_radial)"/>
<path style="mix-blend-mode:screen" d="M20.0721 38.3035V39.6481C22.2058 39.585 23.6087 39.4477 24.0332 39.3325V38.3051L20.0721 38.3035Z" fill="url(#paint38_radial)"/>
<path opacity="0.6" d="M13.2389 23.2955C12.6155 22.8963 11.5692 21.9099 10.9285 20.4707C10.2878 19.0314 10.2531 17.5922 10.373 16.8615C10.4772 17.1251 10.5971 17.4644 10.7076 17.78C10.9443 18.4507 11.2378 19.2855 11.6276 20.1582C12.0174 21.0309 12.4404 21.8089 12.7812 22.4339C12.9422 22.7274 13.1142 23.0414 13.2389 23.2955Z" fill="#A82403"/>
<defs>
<radialGradient id="paint0_radial" cx="0" cy="0" r="1" gradientUnits="userSpaceOnUse" gradientTransform="translate(24.6487 18.345) scale(16.2626)">
<stop stop-color="#FFDE59"/>
<stop offset="0.51" stop-color="#ECAA0A"/>
<stop offset="0.76" stop-color="#DE7505"/>
<stop offset="1" stop-color="#B54005"/>
</radialGradient>
<radialGradient id="paint1_radial" cx="0" cy="0" r="1" gradientUnits="userSpaceOnUse" gradientTransform="translate(3724.09 1800.73) scale(1776.97 3531.48)">
<stop stop-color="#FFDE59"/>
<stop offset="0.67" stop-color="#ECAA0A"/>
<stop offset="1" stop-color="#DE7505"/>
</radialGradient>
<radialGradient id="paint2_radial" cx="0" cy="0" r="1" gradientUnits="userSpaceOnUse" gradientTransform="translate(3524.76 1988.89) scale(1148.8 2283.07)">
<stop stop-color="#FFDE59"/>
<stop offset="0.67" stop-color="#ECAA0A"/>
<stop offset="1" stop-color="#DE7505"/>
</radialGradient>
<radialGradient id="paint3_radial" cx="0" cy="0" r="1" gradientUnits="userSpaceOnUse" gradientTransform="translate(482.796 267.527) scale(22.6957 40.4434)">
<stop stop-color="#FFDE59"/>
<stop offset="0.51" stop-color="#ECAA0A"/>
<stop offset="0.76" stop-color="#DE7505"/>
<stop offset="1" stop-color="#B54005"/>
</radialGradient>
<radialGradient id="paint4_radial" cx="0" cy="0" r="1" gradientUnits="userSpaceOnUse" gradientTransform="translate(2090.74 3316.28) scale(531.863 1271.56)">
<stop stop-color="#FFDE59"/>
<stop offset="0.51" stop-color="#ECAA0A"/>
<stop offset="0.76" stop-color="#DE7505"/>
<stop offset="1" stop-color="#B54005"/>
</radialGradient>
<radialGradient id="paint5_radial" cx="0" cy="0" r="1" gradientUnits="userSpaceOnUse" gradientTransform="translate(211.25 204.452) scale(4.81093 5.67793)">
<stop stop-color="#FFDE59"/>
<stop offset="0.51" stop-color="#ECAA0A"/>
<stop offset="0.76" stop-color="#DE7505"/>
<stop offset="1" stop-color="#B54005"/>
</radialGradient>
<linearGradient id="paint6_linear" x1="28.2752" y1="3.6337" x2="27.0585" y2="3.68736" gradientUnits="userSpaceOnUse">
<stop stop-color="white"/>
<stop offset="1" stop-color="#7D4203"/>
</linearGradient>
<linearGradient id="paint7_linear" x1="24.8933" y1="21.0657" x2="28.321" y2="19.2019" gradientUnits="userSpaceOnUse">
<stop stop-color="#7D4203"/>
<stop offset="1" stop-color="white"/>
</linearGradient>
<radialGradient id="paint8_radial" cx="0" cy="0" r="1" gradientUnits="userSpaceOnUse" gradientTransform="translate(31.6225 7.82678) scale(11.4714)">
<stop stop-color="#FFEC99"/>
<stop offset="1"/>
</radialGradient>
<radialGradient id="paint9_radial" cx="0" cy="0" r="1" gradientUnits="userSpaceOnUse" gradientTransform="translate(-930.656 4032.61) rotate(180) scale(1106.02 2104.05)">
<stop stop-color="#FFDE59"/>
<stop offset="0.51" stop-color="#ECAA0A"/>
<stop offset="0.76" stop-color="#DE7505"/>
<stop offset="1" stop-color="#B54005"/>
</radialGradient>
<radialGradient id="paint10_radial" cx="0" cy="0" r="1" gradientUnits="userSpaceOnUse" gradientTransform="translate(-1784.88 1800.73) rotate(180) scale(1776.71 3531.48)">
<stop stop-color="#FFDE59"/>
<stop offset="0.67" stop-color="#ECAA0A"/>
<stop offset="1" stop-color="#DE7505"/>
</radialGradient>
<radialGradient id="paint11_radial" cx="0" cy="0" r="1" gradientUnits="userSpaceOnUse" gradientTransform="translate(1.03998 1.89616) rotate(180) scale(16.8891)">
<stop stop-color="#FFDE59"/>
<stop offset="0.67" stop-color="#EC730A"/>
<stop offset="1" stop-color="#DE7505"/>
</radialGradient>
<radialGradient id="paint12_radial" cx="0" cy="0" r="1" gradientUnits="userSpaceOnUse" gradientTransform="translate(6.06474 2.53849) rotate(180) scale(2.323)">
<stop stop-color="#FFDE59"/>
<stop offset="0.51" stop-color="#ECAA0A"/>
<stop offset="0.83" stop-color="#FFE1A6"/>
</radialGradient>
<radialGradient id="paint13_radial" cx="0" cy="0" r="1" gradientUnits="userSpaceOnUse" gradientTransform="translate(8.15731 16.9641) rotate(180) scale(11.4256)">
<stop stop-color="#FFDE59"/>
<stop offset="0.51" stop-color="#ECAA0A"/>
<stop offset="0.76" stop-color="#DE7505"/>
</radialGradient>
<radialGradient id="paint14_radial" cx="0" cy="0" r="1" gradientUnits="userSpaceOnUse" gradientTransform="translate(69.7405 204.452) scale(4.75804 5.67793)">
<stop stop-color="#FFDE59"/>
<stop offset="0.51" stop-color="#ECAA0A"/>
<stop offset="0.76" stop-color="#DE7505"/>
</radialGradient>
<linearGradient id="paint15_linear" x1="-226.083" y1="144.74" x2="-210.26" y2="145.793" gradientUnits="userSpaceOnUse">
<stop stop-color="white"/>
<stop offset="1" stop-color="#7D4203"/>
</linearGradient>
<linearGradient id="paint16_linear" x1="-358.341" y1="767.501" x2="-439.769" y2="716.28" gradientUnits="userSpaceOnUse">
<stop stop-color="#7D4203"/>
<stop offset="1" stop-color="white"/>
</linearGradient>
<radialGradient id="paint17_radial" cx="0" cy="0" r="1" gradientUnits="userSpaceOnUse" gradientTransform="translate(900.403 864.142) scale(309.108 489.61)">
<stop stop-color="#FFEC99"/>
<stop offset="1"/>
</radialGradient>
<radialGradient id="paint18_radial" cx="0" cy="0" r="1" gradientUnits="userSpaceOnUse" gradientTransform="translate(3221.64 699.509) scale(760.919 111.732)">
<stop stop-color="#FFDE59"/>
<stop offset="0.51" stop-color="#ECAA0A"/>
<stop offset="0.76" stop-color="#DE7505"/>
<stop offset="1" stop-color="#B54005"/>
</radialGradient>
<radialGradient id="paint19_radial" cx="0" cy="0" r="1" gradientUnits="userSpaceOnUse" gradientTransform="translate(18.8649 38.0621) scale(8.19362)">
<stop stop-color="#FFDE59"/>
<stop offset="0.67" stop-color="#ECAA0A"/>
<stop offset="1" stop-color="#BA3804"/>
</radialGradient>
<radialGradient id="paint20_radial" cx="0" cy="0" r="1" gradientUnits="userSpaceOnUse" gradientTransform="translate(3329.48 268.256) scale(525.778 27.1881)">
<stop stop-color="#FFEC99"/>
<stop offset="1"/>
</radialGradient>
<linearGradient id="paint21_linear" x1="10.6476" y1="38.0258" x2="15.5776" y2="38.0258" gradientUnits="userSpaceOnUse">
<stop stop-color="#FFD117"/>
<stop offset="0.67" stop-color="#EC830A"/>
<stop offset="1" stop-color="#BD4B05"/>
</linearGradient>
<radialGradient id="paint22_radial" cx="0" cy="0" r="1" gradientUnits="userSpaceOnUse" gradientTransform="translate(18.2121 36.1782) scale(3.49065 5.94447)">
<stop stop-color="#FFDE59"/>
<stop offset="0.67" stop-color="#ECAA0A"/>
<stop offset="0.88" stop-color="#DE7505"/>
<stop offset="1" stop-color="#CC5505"/>
</radialGradient>
<radialGradient id="paint23_radial" cx="0" cy="0" r="1" gradientUnits="userSpaceOnUse" gradientTransform="translate(1431.34 504.341) scale(119.832 10.7584)">
<stop stop-color="#FFEC99"/>
<stop offset="1"/>
</radialGradient>
<radialGradient id="paint24_radial" cx="0" cy="0" r="1" gradientUnits="userSpaceOnUse" gradientTransform="translate(1056.16 -1554.59) scale(78.8526 15.5874)">
<stop stop-color="#FFDE59"/>
<stop offset="0.51" stop-color="#ECAA0A"/>
<stop offset="0.76" stop-color="#DE7505"/>
<stop offset="1" stop-color="#B54005"/>
</radialGradient>
<radialGradient id="paint25_radial" cx="0" cy="0" r="1" gradientUnits="userSpaceOnUse" gradientTransform="translate(5109.11 2657.18) scale(1992.72 2456.04)">
<stop stop-color="#FFDE59"/>
<stop offset="0.67" stop-color="#ECAA0A"/>
<stop offset="1" stop-color="#FFC632"/>
</radialGradient>
<linearGradient id="paint26_linear" x1="4487.58" y1="1889.76" x2="3906.81" y2="2839.52" gradientUnits="userSpaceOnUse">
<stop stop-color="#FFD117"/>
<stop offset="0.67" stop-color="#EC830A"/>
<stop offset="1" stop-color="#BD4B05"/>
</linearGradient>
<linearGradient id="paint27_linear" x1="7.63968" y1="1.65" x2="27.3473" y2="1.65" gradientUnits="userSpaceOnUse">
<stop stop-color="#F3BE29"/>
<stop offset="0.11" stop-color="white"/>
<stop offset="0.42" stop-color="#FFDE59"/>
<stop offset="0.85" stop-color="white"/>
<stop offset="1" stop-color="#FFDE59"/>
</linearGradient>
<linearGradient id="paint28_linear" x1="2044.98" y1="3279.2" x2="1486.61" y2="3579.61" gradientUnits="userSpaceOnUse">
<stop stop-color="#FFDE59"/>
<stop offset="0.67" stop-color="#ECAA0A"/>
<stop offset="1" stop-color="#DE7505"/>
</linearGradient>
<linearGradient id="paint29_linear" x1="23.5424" y1="5.68051" x2="21.2573" y2="19.5917" gradientUnits="userSpaceOnUse">
<stop stop-color="white"/>
<stop offset="1" stop-color="#F3BE29"/>
</linearGradient>
<linearGradient id="paint30_linear" x1="11.9385" y1="6.15399" x2="9.83642" y2="18.9494" gradientUnits="userSpaceOnUse">
<stop stop-color="#FFE773"/>
<stop offset="1"/>
</linearGradient>
<radialGradient id="paint31_radial" cx="0" cy="0" r="1" gradientUnits="userSpaceOnUse" gradientTransform="translate(18.3978 25.912) scale(3.41822 3.38403)">
<stop stop-color="#FFDE59"/>
<stop offset="0.67" stop-color="#ECAA0A"/>
<stop offset="0.88" stop-color="#DE7505"/>
<stop offset="1" stop-color="#DE5C05"/>
</radialGradient>
<radialGradient id="paint32_radial" cx="0" cy="0" r="1" gradientUnits="userSpaceOnUse" gradientTransform="translate(1418.49 113.269) scale(76.492 3.89477)">
<stop stop-color="#FFEC99"/>
<stop offset="1"/>
</radialGradient>
<radialGradient id="paint33_radial" cx="0" cy="0" r="1" gradientUnits="userSpaceOnUse" gradientTransform="translate(1956.46 -6105.18) scale(240.076 61.4838)">
<stop stop-color="#FFDE59"/>
<stop offset="0.67" stop-color="#ECAA0A"/>
<stop offset="0.88" stop-color="#DE7505"/>
<stop offset="1" stop-color="#DE5C05"/>
</radialGradient>
<radialGradient id="paint34_radial" cx="0" cy="0" r="1" gradientUnits="userSpaceOnUse" gradientTransform="translate(1882.3 -49.4794) scale(142.485 12.9954)">
<stop stop-color="#FFEC99"/>
<stop offset="1"/>
</radialGradient>
<radialGradient id="paint35_radial" cx="0" cy="0" r="1" gradientUnits="userSpaceOnUse" gradientTransform="translate(1047.69 129.893) scale(73.8057 4.77949)">
<stop stop-color="#FFDE59"/>
<stop offset="0.67" stop-color="#ECAA0A"/>
<stop offset="1" stop-color="#BA3804"/>
</radialGradient>
<radialGradient id="paint36_radial" cx="0" cy="0" r="1" gradientUnits="userSpaceOnUse" gradientTransform="translate(1074.31 105.562) scale(73.7593 3.51952)">
<stop stop-color="#FFEC99"/>
<stop offset="1"/>
</radialGradient>
<radialGradient id="paint37_radial" cx="0" cy="0" r="1" gradientUnits="userSpaceOnUse" gradientTransform="translate(17.5172 27.4586) rotate(90.3423) scale(9.11383 3.58663)">
<stop stop-color="#FFE8BE"/>
<stop offset="1" stop-color="#FFC700"/>
</radialGradient>
<radialGradient id="paint38_radial" cx="0" cy="0" r="1" gradientUnits="userSpaceOnUse" gradientTransform="translate(1021.4 479.978) scale(68.9626 23.4088)">
<stop stop-color="#FFEC99"/>
<stop offset="1"/>
</radialGradient>
</defs>
</svg>
